<?xml version="1.0" standalone="no"?>
<!DOCTYPE svg PUBLIC "-//W3C//DTD SVG 20010904//EN"
 "http://www.w3.org/TR/2001/REC-SVG-20010904/DTD/svg10.dtd">
<svg version="1.0" xmlns="http://www.w3.org/2000/svg"
 width="1080.000000pt" height="1350.000000pt" viewBox="0 0 1080.000000 1350.000000"
 preserveAspectRatio="xMidYMid meet">

<g transform="translate(0.000000,1350.000000) scale(0.100000,-0.100000)"
fill="#000000" stroke="none">
<path d="M0 12255 l0 -1245 930 0 930 0 3 248 2 247 3 -247 2 -248 3535 0
3535 0 3 248 2 247 3 -247 2 -248 925 0 925 0 0 1245 0 1245 -925 0 -925 0 -3
-292 -2 -293 -3 293 -2 292 -3535 0 -3535 0 -3 -292 -2 -293 -3 293 -2 292
-930 0 -930 0 0 -1245z m5623 122 c-3 -16 -19 -31 -49 -45 -54 -27 -54 -27
-54 -2 0 13 15 27 48 44 59 31 60 31 55 3z m-2262 -102 c55 -29 65 -100 20
-146 -25 -24 -37 -29 -80 -29 l-51 0 0 -60 0 -60 -30 0 -30 0 0 155 0 155 70
0 c45 0 82 -6 101 -15z m443 -14 c34 -32 36 -94 4 -128 -12 -13 -27 -23 -35
-23 -18 0 -17 -3 22 -64 19 -30 35 -58 35 -61 0 -3 -15 -5 -32 -5 -30 0 -37 6
-67 60 -45 78 -61 78 -61 0 l0 -60 -30 0 -30 0 -1 123 c-1 67 -2 137 -4 155
l-3 34 88 -4 c77 -3 92 -6 114 -27z m434 15 c55 -29 76 -62 80 -129 2 -49 -1
-69 -17 -95 -74 -117 -254 -86 -279 49 -14 73 16 144 74 174 36 19 107 19 142
1z m513 -9 c18 -12 39 -34 46 -47 12 -24 11 -25 -17 -28 -18 -2 -37 3 -47 13
-63 64 -153 22 -153 -72 0 -36 6 -50 29 -74 37 -37 79 -38 120 -3 46 39 41 54
-19 54 -43 0 -50 3 -50 20 0 18 7 20 78 20 l78 0 -6 -50 c-10 -76 -61 -120
-140 -120 -94 0 -153 60 -152 156 1 96 57 153 153 154 32 0 57 -7 80 -23z
m465 -10 c15 -17 24 -41 24 -61 0 -36 -33 -86 -56 -86 -17 0 -18 -10 -1 -35 7
-11 24 -37 36 -57 l23 -38 -34 0 c-31 0 -37 5 -69 60 -44 78 -59 78 -59 0 l0
-60 -35 0 -35 0 0 156 0 156 91 -4 c85 -3 92 -5 115 -31z m430 -112 c30 -77
54 -146 54 -152 0 -8 -12 -13 -29 -13 -23 0 -31 6 -40 30 -10 29 -12 30 -75
30 -63 0 -65 0 -71 -30 -6 -26 -11 -30 -42 -30 -29 0 -34 3 -28 18 4 9 27 70
51 136 58 155 57 153 95 152 31 -1 32 -3 85 -141z m344 80 c16 -36 37 -88 47
-115 17 -47 33 -65 33 -37 0 17 69 188 82 205 6 6 23 12 39 12 l29 0 0 -155 0
-155 -30 0 -30 0 0 103 -1 102 -25 -70 c-14 -38 -31 -85 -37 -102 -8 -27 -16
-33 -37 -33 -25 0 -30 7 -59 88 -18 48 -36 94 -39 102 -4 8 -8 -31 -10 -87
l-3 -103 -29 0 -30 0 0 148 c0 82 3 152 7 155 3 4 19 7 35 7 26 0 32 -7 58
-65z m656 -85 c30 -80 54 -148 54 -152 0 -5 -14 -8 -31 -8 -24 0 -32 6 -40 30
-11 29 -13 30 -73 30 -59 0 -62 -1 -73 -30 -9 -25 -17 -30 -43 -30 -22 0 -31
4 -28 13 74 199 103 274 111 285 6 7 24 12 40 10 28 -3 32 -9 83 -148z m454
125 c0 -23 -4 -25 -42 -25 l-43 0 3 -130 4 -130 -36 0 -36 0 0 130 0 130 -40
0 c-36 0 -40 3 -40 25 l0 25 115 0 115 0 0 -25z m370 0 c0 -24 -3 -25 -60 -25
l-60 0 0 -40 0 -40 55 0 c52 0 55 -1 55 -25 0 -24 -3 -25 -55 -25 l-55 0 0
-40 0 -40 64 0 c62 0 63 0 58 -25 -4 -24 -6 -25 -93 -25 l-89 0 0 155 0 155
90 0 c89 0 90 0 90 -25z"/>
<path d="M3250 12189 c0 -43 3 -50 16 -45 9 3 27 6 40 6 16 0 28 8 36 25 15
34 -12 65 -59 65 l-33 0 0 -51z"/>
<path d="M3670 12190 c0 -49 1 -50 31 -50 46 0 69 16 69 50 0 34 -23 50 -69
50 -30 0 -31 -1 -31 -50z"/>
<path d="M4134 12230 c-50 -20 -72 -110 -39 -158 35 -49 123 -44 150 9 30 58
16 118 -35 144 -32 17 -45 18 -76 5z"/>
<path d="M5080 12190 c0 -45 2 -50 23 -50 44 0 67 12 74 38 8 32 -25 62 -68
62 -28 0 -29 -2 -29 -50z"/>
<path d="M5537 12161 c-24 -67 -23 -71 23 -71 22 0 40 3 40 7 0 13 -35 113
-40 113 -3 0 -13 -22 -23 -49z"/>
<path d="M6532 12151 l-21 -61 45 0 c24 0 44 1 44 3 0 10 -34 103 -40 110 -4
5 -17 -19 -28 -52z"/>
<path d="M0 10645 l0 -355 930 0 930 0 0 355 0 355 -930 0 -930 0 0 -355z"/>
<path d="M1870 10645 l0 -355 420 0 420 0 0 -314 0 -314 -27 -6 c-16 -4 -80
-15 -143 -26 -63 -10 -189 -35 -280 -54 -91 -20 -216 -46 -277 -58 l-113 -22
0 -2322 0 -2322 23 5 c12 2 51 13 87 24 36 11 132 35 214 54 82 19 152 39 156
45 4 6 10 57 13 113 3 56 13 208 21 337 9 129 23 343 31 475 8 132 20 292 25
355 6 63 15 174 21 245 5 72 14 182 19 245 5 63 21 223 35 355 29 275 37 353
65 670 11 127 29 331 40 455 11 124 30 329 41 455 11 127 24 278 28 337 4 59
10 111 14 114 4 4 7 -1325 7 -2954 l0 -2962 -420 0 -420 0 0 -305 0 -305 3536
0 3535 0 -3 323 c-2 220 -7 328 -14 338 -6 8 -21 50 -34 94 -12 44 -26 88 -31
97 -5 10 -25 79 -44 155 -20 76 -44 167 -55 203 -34 115 -63 273 -67 367 -4
83 -2 94 17 113 12 12 19 28 16 35 -8 23 7 25 65 10 30 -7 75 -16 102 -20 l47
-6 -1 408 c-1 224 -5 435 -9 468 -4 33 -8 50 -9 38 -1 -18 -8 -23 -28 -24 -16
-1 -36 -2 -46 -3 -10 -1 -21 -6 -25 -12 -4 -6 -25 -14 -47 -18 -22 -4 -57 -16
-79 -27 -22 -10 -61 -19 -87 -19 -38 0 -48 -4 -52 -20 -3 -12 -14 -20 -26 -20
-12 0 -21 -5 -21 -11 0 -6 -11 -8 -29 -4 -20 4 -34 1 -45 -10 -17 -17 -56 -12
-56 7 0 5 -14 23 -31 39 -32 29 -79 39 -79 17 0 -9 -2 -10 -8 -2 -4 6 -16 14
-28 18 -32 10 -45 -13 -39 -73 5 -46 3 -51 -15 -51 -13 0 -20 -7 -20 -20 0
-11 -4 -20 -10 -20 -5 0 -10 -7 -10 -17 0 -32 -14 -1 -21 45 -6 41 -7 37 -9
-38 l-3 -85 -8 85 c-4 47 -7 204 -8 348 -1 258 -1 265 22 295 36 51 85 136 93
160 3 12 11 27 16 34 5 7 7 26 3 42 -6 27 -3 31 19 37 17 4 26 13 26 25 0 11
6 22 14 25 23 9 28 36 9 56 -14 16 -15 21 -4 28 11 6 9 9 -6 14 -11 4 -27 4
-34 1 -8 -3 -23 1 -33 8 -17 12 -17 15 -2 29 13 14 14 17 1 22 -13 4 -15 31
-14 148 1 179 -7 204 -78 233 l-33 14 0 1900 0 1901 425 0 425 0 0 355 0 355
-3535 0 -3535 0 0 -355z m1865 145 c-3 -5 -12 -10 -18 -10 -7 0 -6 4 3 10 19
12 23 12 15 0z m-204 -41 c11 -5 17 -15 13 -20 -4 -6 -13 -4 -25 7 -15 14 -21
14 -34 4 -23 -19 -19 -28 23 -47 44 -22 55 -56 21 -73 -16 -9 -28 -9 -45 -1
-24 11 -33 31 -14 31 6 0 10 -4 10 -10 0 -5 11 -10 25 -10 38 0 32 33 -10 53
-26 12 -35 23 -35 41 0 34 33 46 71 25z m443 -11 c8 -13 8 -23 -2 -38 -7 -12
-8 -20 -2 -20 12 0 13 -47 1 -54 -5 -3 -25 -8 -45 -10 l-36 -5 0 75 0 75 36
-3 c22 -2 42 -10 48 -20z m441 2 c21 -17 19 -83 -2 -102 -10 -9 -35 -18 -55
-22 l-38 -7 0 77 0 77 40 -6 c23 -3 47 -11 55 -17z m240 -5 c39 -38 29 -97
-21 -115 -54 -21 -106 36 -85 92 19 51 68 62 106 23z m293 -48 c2 -42 -1 -67
-8 -67 -6 0 -10 25 -10 60 0 33 -4 60 -10 60 -5 0 -10 5 -10 11 0 6 8 9 18 7
14 -3 18 -16 20 -71z m208 66 c-4 -4 -21 -8 -39 -8 -26 0 -33 -5 -35 -24 -3
-21 -1 -23 21 -17 40 10 57 -2 57 -40 0 -37 -23 -57 -58 -48 -21 6 -39 34 -22
34 6 0 10 -4 10 -10 0 -5 11 -10 25 -10 29 0 43 25 28 49 -12 17 -15 17 -50 6
-21 -6 -23 -3 -23 34 l0 41 47 0 c25 0 43 -3 39 -7z m351 -15 c20 -16 16 -82
-5 -101 -10 -9 -35 -19 -55 -21 l-37 -5 0 76 0 76 42 -7 c23 -4 48 -12 55 -18z
m203 12 c0 -5 -13 -10 -30 -10 -25 0 -30 -4 -30 -25 0 -21 5 -25 33 -27 l32
-1 -32 -4 c-27 -4 -33 -9 -33 -29 0 -21 5 -24 36 -24 21 0 33 -4 29 -10 -3 -5
-22 -10 -41 -10 l-34 0 0 75 0 75 35 0 c19 0 35 -4 35 -10z m320 0 c0 -5 -13
-10 -30 -10 -25 0 -30 -4 -30 -25 0 -20 5 -25 28 -26 l27 -2 -27 -4 c-24 -4
-28 -9 -28 -39 0 -21 -4 -33 -10 -29 -11 7 -14 128 -3 138 10 11 73 8 73 -3z
m190 0 c0 -5 -13 -10 -30 -10 -25 0 -30 -4 -30 -25 0 -20 5 -25 28 -26 l27 -2
-27 -4 c-22 -3 -28 -10 -28 -29 0 -20 5 -24 30 -24 17 0 30 -4 30 -9 0 -6 -17
-9 -37 -7 l-38 2 -1 65 c0 35 1 67 3 72 6 11 73 9 73 -3z m184 4 c18 -7 22
-49 5 -59 -6 -5 -4 -11 7 -19 19 -15 11 -55 -12 -57 -69 -8 -69 -8 -72 55 -2
32 -1 65 2 72 6 15 43 19 70 8z m207 -4 c23 -13 25 -56 3 -68 -15 -8 -15 -11
1 -36 10 -15 15 -29 12 -32 -3 -3 -14 7 -23 23 -10 15 -25 32 -34 38 -12 7 -9
10 15 15 44 8 42 44 -2 48 l-32 3 -4 -68 -3 -68 -2 78 c-2 77 -2 77 24 77 14
0 34 -5 45 -10z m209 -1 c0 -7 -11 -9 -30 -5 -28 5 -30 3 -30 -24 0 -26 4 -30
28 -31 l27 -2 -27 -4 c-22 -3 -28 -10 -28 -29 0 -20 5 -24 30 -24 42 0 38 -16
-5 -18 l-35 -1 0 74 0 75 35 0 c19 0 35 -5 35 -11z m194 -5 c21 -21 20 -37 -4
-59 -18 -16 -18 -19 -3 -41 9 -14 13 -27 10 -30 -2 -3 -15 11 -27 30 -27 45
-40 46 -40 1 0 -19 -4 -35 -9 -35 -9 0 -14 127 -6 140 8 13 64 9 79 -6z m230
-5 c34 -27 35 -71 1 -104 -28 -29 -36 -30 -74 -10 -40 20 -48 79 -15 112 29
28 54 29 88 2z m-3495 -48 c20 -55 30 -110 11 -63 -14 33 -90 29 -90 -6 0 -8
-3 -13 -6 -9 -10 10 37 137 50 137 8 0 23 -26 35 -59z m431 4 c33 -93 33 -93
14 -67 -22 30 -80 31 -89 1 -4 -11 -9 -18 -12 -16 -10 10 42 137 55 135 8 -2
22 -25 32 -53z m115 -1609 c72 -30 85 -129 24 -180 -45 -38 -92 -35 -135 8
-55 55 -43 134 26 168 42 22 42 22 85 4z m2132 -1 c11 -3 29 -17 37 -31 14
-21 15 -25 2 -30 -8 -3 -24 4 -35 15 -24 24 -69 27 -96 7 -29 -21 -27 -92 4
-117 30 -25 62 -24 89 1 31 29 28 38 -15 42 -20 2 -38 9 -41 16 -3 9 12 12 53
12 l58 0 -6 -37 c-20 -120 -197 -105 -197 17 0 62 21 94 75 111 20 7 32 6 72
-6z m-1735 -12 c44 -39 7 -113 -57 -113 -34 0 -35 -1 -35 -40 0 -28 -4 -40
-14 -40 -12 0 -15 22 -18 105 l-3 105 54 0 c37 0 60 -5 73 -17z m348 2 c0 -11
-11 -15 -39 -15 -33 0 -39 -3 -43 -25 -7 -32 -2 -35 45 -35 50 0 45 -24 -6
-28 -34 -3 -37 -6 -37 -33 0 -27 2 -29 40 -29 29 0 40 -4 40 -15 0 -12 -13
-15 -60 -15 l-60 0 0 105 0 105 60 0 c47 0 60 -3 60 -15z m292 -55 c24 -38 46
-70 51 -70 4 0 7 32 7 70 0 56 3 70 15 70 12 0 15 -18 15 -105 0 -131 -11
-135 -80 -29 -28 42 -50 75 -51 73 0 -2 -2 -35 -2 -74 -2 -58 -5 -70 -19 -73
-16 -3 -18 7 -18 102 0 98 1 106 19 106 14 0 33 -22 63 -70z m341 -32 c-2 -83
-5 -104 -18 -106 -13 -3 -15 12 -15 102 0 95 2 106 18 106 16 0 17 -10 15
-102z m307 29 l45 -72 3 73 c2 55 6 72 17 72 12 0 15 -20 15 -105 0 -130 -10
-134 -77 -32 l-48 72 -3 -73 c-2 -63 -5 -73 -20 -70 -14 3 -17 18 -20 106 -3
100 -2 102 20 102 18 0 34 -17 68 -73z m-1075 -351 c14 -21 14 -28 2 -58 -8
-19 -26 -44 -41 -55 -35 -28 -33 -33 14 -33 29 0 40 -4 40 -15 0 -12 -14 -15
-64 -15 -36 0 -68 5 -71 10 -4 6 16 32 44 58 36 34 51 56 51 74 0 38 -30 45
-55 14 -26 -32 -35 -33 -35 -3 0 33 18 47 62 47 29 0 41 -6 53 -24z m236 8 c7
-9 15 -41 17 -72 5 -70 -21 -112 -68 -112 -71 0 -106 122 -52 183 19 22 85 23
103 1z m165 8 c21 -14 34 -51 34 -97 0 -75 -62 -119 -113 -81 -39 30 -45 128
-9 169 15 17 68 23 88 9z m-321 -52 c0 -8 -8 -16 -17 -18 -13 -2 -18 3 -18 18
0 15 5 20 18 18 9 -2 17 -10 17 -18z m505 10 c0 -7 6 -7 19 0 30 16 59 12 81
-10 27 -27 27 -89 0 -118 -23 -24 -69 -29 -88 -10 -9 9 -12 1 -12 -36 0 -39
-3 -47 -17 -44 -15 3 -17 17 -18 108 0 58 1 108 3 113 5 11 32 8 32 -3z m243
-2 c4 -10 7 -10 18 0 17 16 51 15 74 -2 16 -11 21 -11 33 0 20 20 59 17 82 -6
28 -28 30 -143 3 -138 -14 2 -19 16 -23 63 -4 54 -7 60 -29 63 -32 5 -41 -12
-41 -76 0 -45 -3 -53 -17 -50 -14 2 -19 15 -21 58 -4 64 -11 75 -46 66 -23 -6
-25 -12 -28 -64 -2 -43 -7 -57 -18 -57 -11 0 -16 15 -18 64 -2 35 -1 70 2 77
7 17 23 18 29 2z m-747 -119 c9 -15 -11 -33 -30 -26 -9 4 -13 13 -10 22 7 17
30 20 40 4z m684 -9 c0 -11 -7 -20 -15 -20 -8 0 -15 9 -15 20 0 11 7 20 15 20
8 0 15 -9 15 -20z m358 3 c-2 -10 -12 -18 -23 -18 -11 0 -21 8 -23 18 -3 13 3
17 23 17 20 0 26 -4 23 -17z m1180 -267 c3 -3 -809 -5 -1804 -4 -995 1 -1719
5 -1609 8 266 7 3405 3 3413 -4z m-1134 -425 c8 -12 -21 -34 -34 -26 -17 11
-11 35 9 35 11 0 22 -4 25 -9z m-1486 -103 c-2 -70 -7 -103 -15 -106 -10 -3
-13 22 -13 102 0 89 3 106 15 106 13 0 15 -16 13 -102z m80 0 c-2 -70 -7 -103
-15 -106 -10 -3 -13 22 -13 102 0 89 3 106 15 106 13 0 15 -16 13 -102z m1520
90 c8 -8 15 -8 27 2 12 10 15 10 15 -5 0 -13 -7 -16 -33 -14 -18 2 -38 0 -45
-5 -15 -9 -16 6 0 22 15 15 21 15 36 0z m-1848 -7 c0 -12 -27 -21 -45 -15 -12
5 -15 -10 -17 -82 -2 -57 -7 -89 -15 -91 -9 -3 -13 20 -15 84 -2 70 -6 88 -18
89 -33 2 -40 4 -40 14 0 6 32 10 75 10 41 0 75 -4 75 -9z m1648 -64 c4 -12 8
-44 7 -72 0 -39 -4 -50 -17 -53 -15 -3 -18 4 -18 46 0 65 -7 82 -34 82 -34 0
-46 -20 -46 -77 0 -40 -4 -53 -15 -53 -12 0 -15 16 -15 80 0 62 3 80 14 80 8
0 17 -6 19 -12 4 -10 8 -10 14 -2 22 31 79 19 91 -19z m-1529 21 c11 -10 14
-10 18 0 3 6 11 12 19 12 11 0 14 -18 14 -80 0 -64 -3 -80 -15 -80 -8 0 -15 7
-15 16 0 14 -2 14 -22 0 -12 -9 -31 -16 -41 -16 -29 0 -67 45 -67 80 0 57 73
102 109 68z m369 -4 c14 -10 22 -25 22 -45 0 -29 0 -29 -60 -29 -58 0 -60 -1
-50 -20 13 -24 52 -26 70 -5 14 17 40 20 40 5 0 -19 -45 -50 -72 -50 -17 0
-39 10 -53 25 -69 68 23 175 103 119z m94 5 c3 -8 10 -8 25 2 12 7 25 10 29 7
12 -12 -5 -38 -25 -38 -23 0 -31 -19 -31 -76 0 -32 -4 -44 -15 -44 -12 0 -15
16 -15 80 0 62 3 80 14 80 8 0 16 -5 18 -11z m188 -1 c0 -9 3 -9 12 0 19 19
66 14 88 -8 27 -27 27 -89 0 -118 -23 -24 -50 -28 -81 -12 -17 10 -19 7 -19
-35 0 -32 -4 -45 -14 -45 -21 0 -25 25 -21 120 2 47 4 91 4 98 1 16 31 16 31
0z m259 0 c11 -10 14 -10 18 0 3 6 11 12 19 12 11 0 14 -18 14 -80 0 -64 -3
-80 -15 -80 -8 0 -15 7 -15 17 0 15 -1 15 -18 0 -41 -37 -112 -1 -112 57 0 65
69 111 109 74z m131 0 c0 -9 3 -9 12 0 17 17 38 15 38 -3 0 -9 -11 -20 -25
-25 -23 -9 -25 -15 -25 -65 0 -48 -3 -56 -17 -53 -15 3 -18 15 -19 73 0 39 1
73 3 78 7 12 33 8 33 -5z m188 0 c9 -9 12 -9 12 0 0 7 9 12 20 12 19 0 21 -5
18 -77 -3 -65 -6 -78 -20 -81 -12 -2 -18 3 -18 15 -1 17 -1 17 -11 1 -20 -35
-82 -21 -105 24 -17 33 -12 72 13 101 18 20 73 23 91 5z m382 -69 c0 -67 -3
-80 -16 -77 -8 2 -15 6 -15 11 1 4 1 39 1 77 0 56 3 70 15 70 12 0 15 -16 15
-81z m80 69 c0 -9 3 -9 12 0 18 18 63 14 82 -7 22 -25 19 -136 -4 -136 -11 0
-14 12 -12 50 3 62 -7 78 -44 73 -28 -3 -29 -6 -34 -63 -4 -44 -9 -60 -20 -60
-12 0 -16 17 -18 78 -3 72 -1 77 18 77 11 0 20 -5 20 -12z m277 -10 c33 -31
32 -90 -3 -117 -15 -12 -37 -21 -49 -21 -12 0 -34 9 -49 21 -33 26 -37 88 -6
119 27 27 77 26 107 -2z m155 5 c10 -9 18 -20 18 -25 0 -13 -22 -9 -40 7 -17
15 -50 11 -50 -6 0 -6 20 -18 45 -29 36 -16 45 -24 45 -44 0 -46 -65 -62 -100
-24 -15 16 -17 24 -8 29 7 5 20 0 31 -12 22 -24 42 -20 42 7 0 13 -8 20 -25
22 -29 4 -60 29 -60 48 0 39 68 58 102 27z m-2600 -275 c-9 -9 -9 -15 0 -25
15 -19 -6 -43 -23 -26 -16 16 -2 63 18 63 13 0 14 -3 5 -12z m40 0 c-8 -8 -8
-15 -1 -24 11 -13 4 -34 -10 -34 -5 0 -11 11 -13 24 -5 25 7 46 26 46 6 0 5
-5 -2 -12z m1111 -24 c-3 -8 -11 -14 -18 -14 -18 0 -26 25 -12 39 14 14 38 -5
30 -25z m1337 11 c0 -8 -5 -17 -11 -21 -16 -9 -30 18 -17 33 12 15 28 8 28
-12z m401 13 c0 -10 2 -10 6 0 2 6 13 12 24 12 24 0 26 -42 3 -61 -15 -12 -16
-11 -10 9 8 24 -8 31 -18 7 -3 -8 -10 -15 -15 -15 -6 0 -8 6 -5 14 3 8 1 17
-5 21 -16 9 -13 25 4 25 8 0 15 -6 16 -12z m-973 -15 c-2 -10 -10 -18 -18 -18
-8 0 -16 8 -18 18 -2 12 3 17 18 17 15 0 20 -5 18 -17z m-1628 -98 c0 -87 -3
-105 -15 -105 -12 0 -15 18 -15 105 0 87 3 105 15 105 12 0 15 -18 15 -105z
m-86 79 c39 -38 7 -104 -51 -104 -32 0 -33 -1 -33 -40 0 -29 -4 -40 -15 -40
-12 0 -15 18 -15 100 l0 100 49 0 c32 0 55 -6 65 -16z m225 -36 c11 -10 14
-10 18 0 3 6 11 12 19 12 11 0 14 -18 14 -80 0 -64 -3 -80 -15 -80 -8 0 -15 7
-15 17 0 15 -1 15 -18 0 -24 -22 -54 -21 -83 2 -30 24 -33 89 -5 120 21 23 65
28 85 9z m131 0 c0 -9 3 -9 12 0 17 17 58 15 80 -5 24 -22 27 -143 3 -143 -11
0 -15 13 -15 54 0 59 -14 80 -52 74 -21 -3 -23 -9 -26 -65 -2 -47 -7 -63 -17
-63 -12 0 -15 17 -15 80 0 64 3 80 15 80 8 0 15 -5 15 -12z m275 -13 c50 -49
15 -135 -55 -135 -41 0 -80 39 -80 80 0 41 39 80 80 80 19 0 40 -9 55 -25z
m157 8 c10 -9 18 -20 18 -25 0 -13 -27 -9 -40 7 -14 17 -20 18 -39 6 -20 -13
3 -41 33 -41 41 0 62 -50 34 -78 -27 -27 -108 -1 -108 34 0 20 17 17 41 -7 16
-16 23 -18 35 -8 22 18 12 31 -32 44 -42 11 -57 42 -34 71 17 19 69 18 92 -3z
m160 -48 c0 -36 1 -71 2 -77 1 -7 -7 -14 -16 -16 -16 -3 -18 6 -18 77 0 65 3
81 15 81 12 0 15 -15 17 -65z m172 50 c12 -13 16 -13 26 0 15 19 60 19 85 2
26 -20 28 -140 3 -145 -16 -3 -18 5 -18 57 0 56 -2 61 -25 67 -39 10 -55 -11
-55 -72 0 -41 -4 -54 -15 -54 -11 0 -15 13 -15 53 0 29 -5 58 -12 65 -30 30
-73 -2 -61 -46 8 -31 -5 -72 -22 -72 -12 0 -15 16 -15 78 l0 78 55 2 c35 1 59
-4 69 -13z m267 5 c13 -7 19 -7 19 0 0 5 9 10 20 10 19 0 21 -5 18 -77 -3 -65
-6 -78 -20 -81 -12 -2 -18 3 -18 14 0 16 -1 16 -18 1 -10 -10 -28 -17 -40 -17
-21 0 -61 35 -63 54 0 6 -2 18 -4 28 -2 9 6 30 16 47 20 33 53 40 90 21z m207
-2 c9 -9 12 -9 12 0 0 7 7 12 15 12 22 0 21 -171 -1 -205 -22 -34 -95 -36
-118 -3 -9 12 -16 26 -16 30 0 14 27 9 40 -8 21 -24 62 -14 71 19 7 26 -3 37
-16 17 -10 -17 -51 -11 -79 11 -33 26 -37 88 -6 119 22 22 79 27 98 8z m120
-65 c-3 -65 -6 -78 -20 -81 -16 -3 -18 6 -18 77 0 75 2 81 20 81 19 0 21 -5
18 -77z m74 66 c3 -9 10 -8 24 1 30 19 69 5 83 -28 18 -42 11 -116 -11 -120
-14 -3 -17 7 -20 60 -3 57 -5 63 -26 66 -38 6 -52 -15 -52 -74 0 -41 -4 -54
-15 -54 -12 0 -15 16 -15 80 0 62 3 80 14 80 8 0 16 -5 18 -11z m257 -1 c11
-10 14 -10 18 0 3 6 11 12 19 12 11 0 14 -18 14 -80 0 -63 -3 -80 -14 -80 -8
0 -18 5 -22 11 -4 8 -9 8 -17 0 -18 -18 -59 -13 -84 11 -30 28 -32 89 -3 118
22 22 69 26 89 8z m131 2 c0 -6 8 -5 20 2 17 11 22 10 30 -2 11 -17 3 -27 -25
-32 -16 -3 -21 -13 -25 -58 -4 -40 -9 -55 -20 -55 -12 0 -16 17 -18 78 -3 72
-1 77 18 77 11 0 20 -5 20 -10z m110 -70 c0 -64 -3 -80 -15 -80 -12 0 -15 16
-15 80 0 64 3 80 15 80 12 0 15 -16 15 -80z m167 58 c33 -31 32 -90 -3 -117
-15 -12 -38 -21 -51 -21 -31 0 -83 51 -78 76 2 10 4 24 4 31 2 23 45 53 75 53
17 0 40 -9 53 -22z m157 6 c31 -31 9 -49 -24 -19 -18 17 -53 10 -47 -9 2 -6
17 -15 33 -21 44 -15 54 -24 54 -50 0 -26 -25 -45 -59 -45 -21 0 -61 32 -61
49 0 14 25 7 45 -12 21 -21 40 -17 40 8 0 12 -10 21 -28 26 -34 9 -57 27 -57
45 0 22 30 44 60 44 16 0 36 -7 44 -16z m-629 -421 c63 -21 146 -101 163 -159
38 -128 -22 -263 -139 -313 l-51 -23 -735 1 c-727 1 -735 1 -784 22 -156 67
-200 272 -86 396 43 47 82 72 132 83 17 4 350 8 740 8 628 1 716 -1 760 -15z
m469 -852 c319 -1 577 -3 575 -6 -6 -5 -1636 -7 -2819 -3 l-795 3 700 5 c385
3 939 4 1230 3 292 0 791 -2 1109 -2z m-396 -744 c2 -12 -3 -17 -17 -17 -12 0
-21 6 -21 13 0 31 32 34 38 4z m-1700 -29 c12 -12 22 -25 22 -30 0 -15 -30 -8
-50 12 -40 40 -100 9 -100 -52 0 -61 66 -91 105 -48 21 23 45 26 45 7 0 -8
-10 -23 -22 -35 -69 -63 -164 -16 -161 81 4 86 97 124 161 65z m1292 2 c0 -13
7 -20 20 -20 11 0 20 -7 20 -15 0 -8 -9 -15 -20 -15 -17 0 -20 -7 -20 -44 0
-35 4 -45 20 -49 30 -8 24 -27 -9 -27 -37 0 -41 7 -44 70 -1 33 -6 50 -14 50
-18 0 -16 27 2 34 8 3 15 9 14 13 -3 17 2 23 16 23 8 0 15 -9 15 -20z m-1091
-57 c27 -60 -6 -123 -65 -123 -35 0 -84 47 -84 80 0 81 116 116 149 43z m169
31 c19 -13 22 -24 22 -85 0 -62 -2 -70 -17 -67 -14 3 -18 14 -19 49 -1 63 -9
79 -38 79 -29 0 -36 -16 -36 -82 0 -42 -3 -49 -17 -46 -20 4 -29 67 -18 125 5
27 10 32 35 31 17 -1 33 2 37 5 10 11 27 8 51 -9z m110 -52 l18 -56 20 53 c11
33 27 56 39 61 11 4 21 7 22 6 2 -2 -10 -38 -26 -82 -25 -68 -32 -79 -52 -79
-19 0 -28 11 -50 70 -34 85 -35 95 -9 88 13 -3 25 -24 38 -61z m258 33 c29
-44 16 -60 -49 -60 -62 0 -78 -18 -31 -36 21 -7 31 -6 44 6 9 8 24 15 33 15
43 0 -4 -48 -54 -56 -65 -11 -111 75 -69 129 18 22 29 27 65 27 36 0 48 -5 61
-25z m144 12 c0 -7 -13 -18 -29 -24 -27 -10 -30 -15 -33 -64 -2 -40 -7 -54
-18 -54 -12 0 -16 16 -18 77 l-3 76 51 0 c33 1 50 -3 50 -11z m118 1 c15 -15
16 -38 1 -38 -6 0 -17 7 -25 15 -21 21 -44 19 -44 -4 0 -14 10 -21 35 -25 48
-9 67 -46 39 -77 -15 -16 -26 -19 -54 -14 -32 6 -60 27 -60 47 0 14 27 9 40
-7 16 -20 50 -19 50 0 0 9 -12 20 -27 26 -49 19 -58 26 -61 43 -2 9 2 23 8 31
15 18 81 20 98 3z m160 0 c9 -9 12 -9 12 0 0 7 7 12 15 12 10 0 15 -11 16 -32
0 -18 2 -52 2 -76 2 -34 -1 -42 -15 -42 -10 0 -18 5 -18 10 0 6 -11 3 -25 -6
-65 -43 -133 67 -79 127 19 21 74 25 92 7z m331 -14 c27 -35 27 -75 -1 -101
-32 -28 -54 -34 -85 -22 -85 32 -63 149 28 149 29 0 42 -6 58 -26z m141 12 c0
-6 -10 -16 -22 -21 -19 -8 -24 -19 -26 -62 -3 -45 -6 -53 -23 -53 -17 0 -19 7
-19 74 l0 74 45 0 c26 -1 45 -6 45 -12z m70 -61 c0 -68 -2 -75 -20 -75 -18 0
-20 7 -20 75 0 68 2 75 20 75 18 0 20 -7 20 -75z m173 43 c18 -24 19 -32 9
-67 -10 -32 -19 -42 -47 -51 -81 -27 -137 56 -84 124 29 37 92 34 122 -6z
m-239 -325 c95 -35 166 -135 166 -235 0 -101 -57 -189 -150 -232 -44 -21 -58
-21 -759 -24 -785 -3 -798 -2 -871 57 -141 114 -111 350 55 427 l50 24 730 0
c670 0 734 -1 779 -17z m2079 -140 c-13 -2 -33 -2 -45 0 -13 2 -3 4 22 4 25 0
35 -2 23 -4z m80 0 c-7 -2 -21 -2 -30 0 -10 3 -4 5 12 5 17 0 24 -2 18 -5z
m-113 -43 c0 -5 -12 -10 -27 -10 -22 0 -25 2 -13 10 20 13 40 13 40 0z m-74
-42 c7 -5 10 -16 8 -26 -9 -35 33 -80 107 -117 40 -20 80 -37 90 -38 38 -6 99
-59 108 -96 36 -134 157 -641 168 -696 3 -16 9 -34 13 -40 4 -5 11 -26 15 -45
4 -19 22 -89 41 -156 37 -132 40 -160 20 -216 -12 -32 -11 -38 0 -38 7 0 16
-11 20 -25 3 -14 11 -26 18 -27 45 -6 -203 -16 -411 -17 l-253 -1 1 203 c1
111 5 213 9 227 4 14 8 21 9 17 1 -4 12 3 25 18 13 14 39 35 57 48 35 23 134
67 152 67 6 0 30 9 54 21 35 17 41 24 33 38 -7 14 -36 22 -127 34 -65 10 -132
17 -150 17 -17 0 -34 6 -36 13 -3 6 -6 3 -6 -8 -1 -17 -3 -17 -11 -5 -6 9 -10
184 -10 443 l0 428 23 -7 c12 -3 27 -11 33 -16z m259 -168 c3 -5 1 -10 -4 -10
-6 0 -11 5 -11 10 0 6 2 10 4 10 3 0 8 -4 11 -10z m-3467 -1692 l3 -87 31 -3
c17 -2 33 -9 36 -15 3 -9 -12 -13 -52 -13 l-56 0 0 106 c0 95 2 105 18 102 14
-3 17 -17 20 -90z m134 12 c3 -83 12 -100 50 -100 35 0 48 28 48 106 0 59 3
74 15 74 12 0 15 -16 15 -85 0 -74 -3 -87 -22 -105 -30 -28 -91 -27 -118 2
-17 18 -20 35 -20 105 0 64 3 83 14 83 10 0 15 -20 18 -80z m341 48 c28 -28
30 -33 14 -36 -11 -2 -29 6 -41 17 -57 53 -134 -10 -105 -86 5 -15 16 -31 22
-35 21 -13 70 -9 89 9 30 27 22 43 -22 43 -22 0 -40 5 -40 10 0 6 25 10 55 10
48 0 55 -3 55 -20 0 -54 -41 -90 -104 -90 -90 0 -129 118 -61 186 37 37 97 34
138 -8z m183 -15 c9 -27 27 -74 40 -105 21 -55 22 -58 4 -58 -10 0 -22 9 -25
20 -5 16 -15 20 -55 20 -39 0 -49 -3 -53 -20 -3 -12 -14 -20 -27 -20 -17 0
-20 3 -13 13 6 6 25 54 43 105 39 110 58 120 86 45z m220 21 c20 -19 24 -31
19 -52 -3 -15 -10 -28 -13 -30 -34 -13 -36 -21 -9 -61 26 -39 26 -41 7 -41
-12 0 -30 16 -46 40 -32 48 -49 47 -49 -3 0 -29 -4 -37 -17 -37 -16 0 -18 12
-18 105 l0 105 50 0 c41 0 56 -5 76 -26z m92 -41 c-5 -26 -38 -29 -38 -4 0 15
6 21 21 21 14 0 19 -5 17 -17z m0 -126 c2 -12 -3 -17 -17 -17 -15 0 -21 6 -21
21 0 25 33 22 38 -4z"/>
<path d="M3900 10714 c0 -22 4 -25 28 -22 19 2 28 9 30 26 3 19 -1 22 -27 22
-27 0 -31 -4 -31 -26z"/>
<path d="M3900 10655 c0 -24 3 -26 33 -23 24 2 32 8 32 23 0 15 -8 21 -32 23
-30 3 -33 1 -33 -23z"/>
<path d="M4330 10685 c0 -54 1 -55 28 -55 52 0 81 59 46 94 -8 9 -29 16 -45
16 -29 0 -29 -1 -29 -55z"/>
<path d="M4572 10728 c-17 -17 -15 -73 2 -87 25 -21 69 -9 84 22 12 24 11 31
-2 53 -18 26 -63 33 -84 12z"/>
<path d="M5426 10742 c-3 -3 -6 -29 -6 -59 0 -52 1 -53 28 -53 16 0 36 8 45
18 19 21 23 67 7 77 -19 12 -68 23 -74 17z"/>
<path d="M6342 10718 c3 -25 33 -34 57 -19 23 15 5 41 -29 41 -27 0 -31 -3
-28 -22z"/>
<path d="M6340 10655 c0 -21 5 -25 29 -25 35 0 56 21 39 38 -7 7 -25 12 -40
12 -23 0 -28 -4 -28 -25z"/>
<path d="M6950 10717 c0 -26 28 -41 50 -27 21 13 7 45 -23 48 -23 3 -27 0 -27
-21z"/>
<path d="M7162 10728 c-17 -17 -15 -73 2 -87 24 -20 69 -9 85 20 13 24 13 29
-2 53 -19 28 -63 36 -85 14z"/>
<path d="M3700 10711 c0 -11 -3 -26 -6 -35 -5 -12 0 -16 20 -16 29 0 31 6 16
44 -11 30 -30 34 -30 7z"/>
<path d="M4131 10699 c-14 -41 -15 -39 18 -39 29 0 29 1 18 35 -13 43 -22 44
-36 4z"/>
<path d="M4207 9042 c-25 -28 -22 -84 6 -110 29 -27 47 -28 81 -1 32 25 37 86
8 112 -25 22 -75 21 -95 -1z"/>
<path d="M4600 9025 c0 -30 3 -35 24 -35 23 0 56 23 56 39 0 16 -25 31 -52 31
-25 0 -28 -3 -28 -35z"/>
<path d="M5054 8646 c-12 -30 1 -109 19 -120 39 -23 74 64 47 115 -12 22 -58
26 -66 5z"/>
<path d="M5237 8653 c-4 -3 -7 -30 -7 -59 0 -45 4 -55 22 -65 18 -10 24 -8 40
11 20 25 24 71 8 101 -10 18 -50 26 -63 12z"/>
<path d="M5502 8608 c-17 -17 -15 -63 3 -78 23 -19 64 -4 71 27 4 14 2 33 -3
42 -13 20 -54 26 -71 9z"/>
<path d="M4402 7728 c-6 -6 -12 -24 -12 -38 0 -49 42 -66 75 -30 38 42 -23
108 -63 68z"/>
<path d="M4747 7734 c-19 -20 -5 -34 34 -34 33 0 40 3 37 18 -3 17 -57 30 -71
16z"/>
<path d="M5122 7728 c-22 -22 -14 -67 13 -80 21 -9 28 -8 45 7 36 32 20 85
-25 85 -12 0 -26 -5 -33 -12z"/>
<path d="M5314 7733 c-19 -13 -22 -51 -7 -72 18 -27 45 -27 68 -1 15 16 17 26
9 48 -10 27 -47 41 -70 25z"/>
<path d="M5620 7721 c-16 -32 -12 -59 13 -72 12 -7 23 -13 23 -13 9 -5 44 42
44 59 0 44 -59 63 -80 26z"/>
<path d="M6342 7728 c-6 -6 -12 -24 -12 -38 0 -49 42 -66 75 -30 38 42 -23
108 -63 68z"/>
<path d="M4100 7405 c0 -32 2 -35 29 -35 21 0 32 6 36 21 8 25 0 34 -37 43
-27 6 -28 4 -28 -29z"/>
<path d="M4352 7378 c-6 -6 -12 -24 -12 -38 0 -49 42 -66 75 -30 38 42 -23
108 -63 68z"/>
<path d="M4733 7383 c-21 -8 -16 -71 7 -83 22 -12 59 2 61 23 5 55 -22 79 -68
60z"/>
<path d="M5512 7378 c-28 -28 -5 -88 34 -88 33 0 52 39 36 75 -13 27 -49 34
-70 13z"/>
<path d="M5702 7361 c-8 -22 -7 -34 4 -50 28 -39 74 -20 74 29 0 55 -61 71
-78 21z"/>
<path d="M6166 7375 c-16 -17 -13 -52 6 -72 33 -32 91 25 68 68 -13 23 -52 25
-74 4z"/>
<path d="M6552 7378 c-17 -17 -15 -63 3 -78 22 -18 64 -4 71 24 12 50 -40 88
-74 54z"/>
<path d="M4641 6965 c-63 -20 -125 -84 -146 -152 -36 -114 12 -228 120 -286
40 -22 43 -22 765 -24 794 -2 791 -2 861 56 75 63 103 184 64 279 -24 59 -94
118 -156 131 -81 18 -1451 14 -1508 -4z m250 -124 c4 -1 12 -14 19 -30 14 -34
-3 -76 -45 -109 -34 -27 -31 -34 12 -30 22 2 38 -2 41 -10 3 -9 -15 -12 -67
-12 -39 0 -71 3 -71 6 0 4 23 29 51 56 40 38 50 54 47 76 -4 37 -40 42 -56 8
-13 -30 -43 -26 -35 5 8 28 43 50 73 45 14 -2 28 -5 31 -5z m246 -17 c23 -23
25 -31 21 -84 -5 -70 -25 -98 -68 -96 -52 2 -70 27 -70 98 1 66 12 92 45 101
38 9 46 7 72 -19z m165 17 c16 -3 38 -63 38 -104 0 -83 -65 -125 -119 -78 -28
25 -38 86 -21 136 15 45 42 57 102 46z m529 -58 c14 -12 18 -11 29 2 16 20 59
19 82 -2 14 -12 18 -31 18 -80 0 -56 -2 -63 -20 -63 -16 0 -19 8 -22 63 -3 62
-3 62 -33 62 -29 0 -30 -1 -35 -60 -4 -44 -9 -60 -20 -60 -11 0 -16 16 -20 60
-5 59 -6 60 -35 60 -30 0 -30 -1 -33 -57 -3 -50 -6 -58 -22 -58 -18 0 -20 7
-20 75 0 75 9 92 36 65 8 -8 15 -6 23 4 13 16 47 11 72 -11z m-846 -3 c0 -8
-8 -16 -17 -18 -13 -2 -18 3 -18 18 0 15 5 20 18 18 9 -2 17 -10 17 -18z m498
8 c4 -10 7 -10 18 0 21 19 66 14 89 -10 42 -46 12 -131 -48 -136 -17 -1 -33 2
-37 8 -14 23 -25 7 -25 -35 0 -33 -4 -45 -15 -45 -12 0 -15 19 -15 115 0 93 3
115 14 115 8 0 16 -6 19 -12z m-493 -123 c0 -21 -30 -31 -40 -14 -11 17 -3 29
21 29 10 0 19 -7 19 -15z m680 1 c0 -15 -24 -28 -34 -19 -13 14 -5 33 14 33
11 0 20 -6 20 -14z m360 0 c0 -8 -5 -18 -10 -21 -17 -11 -40 3 -34 20 8 19 44
20 44 1z"/>
<path d="M5065 6804 c-20 -21 -20 -98 1 -118 21 -21 30 -20 48 6 40 56 -4 156
-49 112z"/>
<path d="M5253 6810 c-19 -8 -23 -17 -23 -54 0 -24 3 -51 6 -60 9 -22 51 -20
64 3 28 53 -4 128 -47 111z"/>
<path d="M5490 6751 c-15 -28 -12 -46 8 -63 26 -23 66 -9 70 26 2 15 -2 34 -9
42 -17 20 -56 17 -69 -5z"/>
<path d="M4634 5286 c-10 -43 -1 -61 34 -64 26 -3 34 1 44 22 9 22 8 29 -7 46
-26 28 -63 26 -71 -4z"/>
<path d="M5182 5298 c-20 -20 -14 -26 29 -26 32 -1 40 2 37 16 -4 21 -48 28
-66 10z"/>
<path d="M5632 5298 c-17 -17 -15 -52 6 -71 26 -23 28 -24 51 -3 37 33 22 86
-24 86 -12 0 -26 -5 -33 -12z"/>
<path d="M5930 5290 c-23 -43 19 -92 61 -70 16 9 19 19 17 48 -3 33 -6 37 -35
40 -24 2 -34 -2 -43 -18z"/>
<path d="M6310 5290 c-23 -43 19 -92 61 -70 16 9 19 19 17 48 -3 33 -6 37 -35
40 -24 2 -34 -2 -43 -18z"/>
<path d="M4910 4980 c-269 -5 -284 -8 -348 -56 -52 -40 -76 -97 -77 -179 0
-58 4 -78 27 -116 27 -46 79 -89 131 -108 19 -8 272 -11 765 -11 695 0 739 1
777 19 56 25 93 63 117 119 55 124 1 260 -127 322 -25 12 -113 15 -520 15
-269 0 -605 -2 -745 -5z m-3 -195 c-5 -53 -4 -65 8 -65 20 0 19 -26 0 -34 -8
-3 -15 -12 -15 -21 0 -8 -7 -15 -15 -15 -9 0 -15 9 -15 21 0 17 -5 20 -21 16
-32 -9 -79 3 -79 20 0 13 37 66 84 121 11 12 28 22 39 22 18 0 19 -5 14 -65z
m237 50 c33 -34 33 -148 -1 -172 -18 -14 -71 -17 -89 -5 -47 31 -41 165 8 185
26 11 67 7 82 -8z m176 -3 c18 -14 24 -32 28 -75 6 -76 -13 -107 -67 -107 -44
0 -65 19 -76 68 -20 94 52 165 115 114z m-320 -53 c0 -12 -7 -19 -20 -19 -22
0 -29 35 -7 43 18 6 27 -2 27 -24z m838 8 c9 -7 17 -6 24 1 7 7 27 12 44 12
44 0 64 -30 64 -97 0 -46 -3 -53 -20 -53 -18 0 -20 7 -20 54 0 62 -16 84 -49
66 -17 -9 -21 -20 -21 -65 0 -48 -2 -55 -20 -55 -18 0 -20 7 -20 55 0 42 -4
56 -18 64 -34 18 -52 -5 -52 -64 0 -48 -2 -55 -20 -55 -18 0 -20 7 -20 75 0
68 2 75 20 75 11 0 20 -6 20 -12 0 -9 3 -10 8 -2 15 23 50 24 80 1z m-344 1
c5 -10 7 -10 12 0 8 16 64 15 87 -2 22 -17 33 -76 18 -104 -16 -30 -63 -43
-95 -27 l-26 14 0 -50 c0 -37 -4 -49 -15 -49 -12 0 -15 19 -15 115 0 93 3 115
14 115 8 0 17 -6 20 -12z m-494 -123 c0 -8 -9 -15 -20 -15 -11 0 -20 7 -20 15
0 8 9 15 20 15 11 0 20 -7 20 -15z m680 0 c0 -8 -9 -15 -20 -15 -11 0 -20 7
-20 15 0 8 9 15 20 15 11 0 20 -7 20 -15z m354 0 c4 -11 -1 -15 -19 -15 -18 0
-23 4 -19 15 4 8 12 15 19 15 7 0 15 -7 19 -15z"/>
<path d="M4838 4760 l-28 -35 26 -3 c33 -4 36 -1 32 39 l-3 34 -27 -35z"/>
<path d="M5076 4805 c-20 -21 -22 -98 -1 -115 41 -34 85 44 55 98 -19 32 -34
37 -54 17z"/>
<path d="M5258 4809 c-14 -8 -18 -23 -18 -64 0 -51 2 -55 27 -61 19 -5 30 -2
40 11 18 25 17 75 -3 103 -17 25 -22 26 -46 11z"/>
<path d="M5498 4744 c-17 -36 0 -59 43 -59 37 0 46 16 35 61 -9 35 -62 34 -78
-2z"/>
<path d="M5547 2913 c-3 -16 -9 -36 -12 -45 -6 -15 -2 -18 24 -18 35 0 35 -1
19 51 -13 46 -23 50 -31 12z"/>
<path d="M5727 2954 c-4 -4 -7 -20 -7 -36 0 -25 3 -28 35 -28 39 0 55 21 38
49 -11 17 -54 27 -66 15z"/>
<path d="M8952 10643 l3 -358 231 4 c127 2 310 0 406 -4 l176 -7 12 -64 c11
-56 14 -62 27 -49 8 8 30 15 49 15 34 0 64 18 64 38 0 5 9 17 21 28 l21 19
-24 6 c-33 8 474 21 685 17 l177 -3 0 358 0 357 -925 0 -925 0 2 -357z"/>
<path d="M10765 10250 c-11 -5 -34 -9 -52 -9 -18 -1 -63 -13 -100 -27 -37 -14
-84 -29 -103 -34 -19 -5 -113 -49 -210 -97 l-175 -88 -146 -147 c-80 -82 -150
-148 -156 -148 -17 0 -69 29 -87 49 -15 17 -16 26 -6 78 7 32 10 72 8 88 l-3
30 -70 -3 c-38 -2 -115 -10 -170 -17 -220 -31 -403 -47 -423 -36 -10 5 -42 9
-71 9 l-52 -1 3 -76 c3 -70 5 -76 26 -79 27 -4 30 -22 2 -22 -25 0 -32 -37
-28 -165 2 -83 6 -99 18 -96 8 2 85 7 170 12 163 9 298 25 315 39 13 10 155
40 191 40 15 0 35 6 43 14 16 13 71 31 71 22 0 -3 -15 -37 -33 -78 -30 -66
-39 -96 -63 -218 l-6 -35 33 35 c19 19 33 42 31 50 -2 12 -1 13 6 1 14 -20 31
-5 26 22 -4 20 -4 20 6 -3 9 -19 13 -21 20 -10 6 10 10 3 15 -24 8 -40 -14
-115 -40 -136 -8 -6 -11 -19 -8 -27 4 -11 2 -14 -5 -9 -7 4 -14 -4 -18 -21 -4
-15 -14 -38 -22 -50 -14 -23 -9 -103 8 -103 4 0 8 -16 8 -36 0 -20 5 -40 12
-44 6 -4 15 -23 20 -44 6 -28 5 -36 -6 -36 -8 0 -19 10 -24 23 -7 18 -9 13 -9
-26 -1 -28 7 -63 18 -85 19 -38 61 -83 61 -66 0 6 14 11 30 12 36 3 37 -1 9
-29 -17 -17 -19 -23 -8 -30 8 -5 13 -24 12 -51 -2 -33 -8 -48 -29 -64 -38 -31
-14 -38 30 -8 20 14 40 23 45 20 20 -13 30 81 10 101 -5 5 -13 36 -16 67 -5
48 -3 56 11 56 9 0 16 5 16 10 0 6 24 10 53 10 61 0 85 -19 108 -83 9 -25 21
-40 36 -43 13 -4 21 -10 18 -14 -3 -5 0 -12 6 -16 6 -3 15 -1 19 5 4 8 11 2
20 -18 7 -17 16 -28 21 -25 8 4 10 0 9 -21 -1 -11 25 -32 39 -32 7 0 19 13 25
29 6 15 14 28 18 28 4 0 8 7 8 15 0 22 27 18 33 -5 6 -23 37 -27 37 -5 0 8 12
21 28 29 l27 14 1 -45 c1 -25 7 -48 13 -53 7 -4 11 -16 9 -25 -3 -18 -4 -18
-22 1 -19 19 -19 18 -12 -11 4 -17 16 -39 27 -51 10 -11 19 -33 19 -48 0 -38
34 -32 38 7 4 35 39 77 64 77 10 0 18 6 18 14 0 8 5 16 10 18 6 2 13 20 16 40
9 55 -22 99 -99 137 -34 17 -53 28 -42 25 55 -18 65 -17 65 5 0 58 -56 106
-132 115 -38 5 -47 -30 -23 -84 26 -57 80 -99 132 -101 l28 -1 -30 -7 c-38 -8
-107 16 -141 50 -30 30 -42 111 -22 149 22 41 75 70 128 70 51 0 106 -15 130
-36 9 -7 27 -10 44 -7 20 4 33 1 41 -10 7 -9 31 -25 53 -35 23 -10 40 -21 37
-24 -3 -2 6 -15 20 -28 l25 -23 0 516 c0 485 -1 516 -18 511 -16 -5 -16 -5 1
6 15 10 17 33 17 250 0 132 -3 240 -7 239 -5 0 -17 -4 -28 -9z m-15 -370 c-8
-5 -22 -10 -30 -10 -13 0 -13 1 0 10 8 5 22 10 30 10 13 0 13 -1 0 -10z
m-1455 -108 c-4 -15 -7 -27 -8 -28 -12 -6 -110 -34 -121 -34 -25 0 -105 42
-111 58 -10 28 15 37 113 42 115 6 137 0 127 -38z m248 7 c4 -16 -1 -23 -26
-34 -56 -23 -106 -28 -153 -15 -37 11 -43 15 -32 26 17 17 113 42 164 43 34 1
43 -3 47 -20z m1229 -131 c-7 -7 -12 -8 -12 -2 0 14 12 26 19 19 2 -3 -1 -11
-7 -17z m15 -480 c-3 -7 -5 -2 -5 12 0 14 2 19 5 13 2 -7 2 -19 0 -25z m-587
-538 c0 -5 -4 -10 -10 -10 -5 0 -10 5 -10 10 0 6 5 10 10 10 6 0 10 -4 10 -10z"/>
<path d="M8922 9892 c-1 -7 -7 -10 -12 -7 -6 3 -13 0 -16 -8 -7 -19 -69 -34
-164 -42 -41 -3 -96 -8 -122 -11 -46 -6 -48 -8 -48 -40 0 -27 3 -32 17 -27 10
4 14 2 10 -4 -8 -12 14 -23 44 -23 10 0 27 -8 37 -18 18 -18 17 -19 -7 -30
-14 -7 -37 -12 -52 -12 -56 0 -63 -11 -22 -36 49 -29 102 -54 117 -54 24 0 86
-67 86 -93 0 -23 4 -26 53 -31 76 -8 87 -5 93 21 4 13 2 115 -3 226 -5 111
-10 196 -11 189z m-137 -182 c16 -6 14 -8 -12 -7 -18 0 -30 4 -27 9 6 10 12 9
39 -2z"/>
<path d="M1839 9495 c-3 -2 -86 -20 -185 -39 -98 -20 -201 -40 -229 -45 -27
-6 -104 -20 -170 -31 -130 -23 -215 -39 -340 -63 -82 -16 -256 -47 -400 -72
-246 -41 -339 -59 -420 -78 l-90 -22 -3 -2363 c-1 -1670 1 -2362 9 -2362 19 0
223 47 429 99 41 10 120 28 175 40 55 12 125 28 155 36 30 8 82 20 115 26 33
6 114 24 180 41 110 27 278 67 495 117 156 36 225 52 263 62 l37 10 0 2324 c0
1279 -4 2325 -8 2325 -5 0 -11 -2 -13 -5z"/>
<path d="M10636 8575 c3 -28 8 -52 10 -54 8 -9 3 75 -6 89 -6 10 -7 -2 -4 -35z"/>
<path d="M10131 8513 c-1 -23 3 -33 14 -33 8 0 15 5 15 10 0 6 -4 10 -9 10 -5
0 -12 10 -14 23 -3 16 -5 13 -6 -10z"/>
<path d="M10611 8479 c-15 -21 -29 -29 -41 -26 -12 3 -17 0 -14 -8 10 -24 44
-25 58 -2 15 23 30 67 24 67 -3 0 -15 -14 -27 -31z"/>
<path d="M10128 8353 c-11 -49 1 -93 23 -93 11 0 19 -4 19 -10 0 -5 14 -10 31
-10 17 0 36 -6 43 -13 19 -18 46 -73 46 -92 0 -21 33 -19 80 5 40 20 46 33 34
76 -4 17 -16 23 -52 27 -25 3 -48 10 -50 16 -2 6 -18 11 -35 11 -24 0 -28 3
-17 10 10 6 11 10 3 10 -7 0 -13 9 -13 20 0 11 -6 21 -12 21 -7 1 -20 3 -28 4
-8 1 -25 3 -37 4 -14 0 -23 9 -25 24 -3 18 -5 16 -10 -10z"/>
<path d="M9865 8297 c-10 -63 8 -84 22 -28 8 30 8 45 -2 58 -12 16 -14 12 -20
-30z"/>
<path d="M9186 8251 c-4 -5 -1 -31 5 -56 11 -42 13 -45 27 -31 12 12 14 23 6
52 -9 38 -27 54 -38 35z"/>
<path d="M10011 8109 c-7 -12 -10 -24 -7 -27 3 -3 6 0 6 6 0 6 7 12 15 14 8 2
11 8 7 15 -6 9 -11 6 -21 -8z"/>
<path d="M10200 8101 c0 -6 -7 -11 -15 -11 -8 0 -15 -4 -15 -8 0 -5 -24 -18
-54 -31 -75 -31 -84 -44 -62 -85 15 -28 22 -51 25 -78 1 -5 9 -8 19 -8 14 0
15 -2 2 -10 -8 -5 -10 -10 -4 -10 6 0 17 -11 24 -25 7 -13 16 -22 20 -20 4 2
19 -17 34 -44 29 -53 32 -66 14 -55 -7 4 -8 3 -4 -5 4 -6 12 -8 18 -5 7 5 9 1
5 -9 -7 -20 31 -60 80 -84 l33 -15 82 83 c76 77 182 166 272 229 23 16 33 30
30 40 -4 8 -8 26 -10 39 -2 23 -38 60 -57 61 -16 0 -77 -32 -77 -41 0 -9 -86
-24 -115 -20 -11 2 -22 7 -26 12 -3 5 -18 10 -35 12 -16 2 -35 7 -42 11 -7 4
-37 10 -67 13 -52 6 -55 7 -55 34 0 15 -4 31 -10 34 -5 3 -10 1 -10 -4z"/>
<path d="M10047 7929 c4 -13 8 -18 11 -10 2 7 -1 18 -6 23 -8 8 -9 4 -5 -13z"/>
<path d="M10020 7907 c0 -35 32 -77 60 -77 11 1 8 6 -8 20 -12 10 -29 31 -37
47 -10 19 -15 22 -15 10z"/>
<path d="M9012 7649 c-20 -8 -22 -13 -16 -46 7 -43 33 -103 43 -103 4 0 16 6
26 14 17 12 18 18 6 69 -14 64 -27 78 -59 66z"/>
<path d="M8112 7600 c0 -14 2 -19 5 -12 2 6 2 18 0 25 -3 6 -5 1 -5 -13z"/>
<path d="M8546 7581 c-9 -10 -21 -33 -26 -50 -10 -35 -9 -35 52 -45 33 -6 37
-4 49 24 8 16 17 30 20 30 13 0 18 44 6 52 -23 15 -83 9 -101 -11z"/>
<path d="M8840 7595 c-8 -2 -31 -6 -51 -10 -35 -5 -37 -8 -44 -51 -3 -26 -3
-50 2 -54 4 -5 35 -11 68 -15 33 -3 68 -8 79 -11 17 -6 18 -2 11 47 -13 93
-20 103 -65 94z"/>
<path d="M9364 7559 c-3 -6 -1 -16 5 -22 8 -8 11 -5 11 11 0 24 -5 28 -16 11z"/>
<path d="M9705 7522 c-29 -16 -29 -17 -7 -20 12 -2 30 -14 38 -28 13 -19 22
-23 43 -18 31 8 27 5 35 29 4 15 -2 24 -25 38 -37 21 -46 21 -84 -1z"/>
<path d="M9247 7483 c-17 -33 -15 -83 4 -83 15 0 21 24 17 71 l-3 44 -18 -32z"/>
<path d="M9866 7494 c-9 -8 -15 -23 -15 -32 1 -15 2 -15 6 1 2 9 8 17 13 17 4
0 10 7 14 15 7 19 1 19 -18 -1z"/>
<path d="M10123 7461 c-13 -16 -23 -36 -23 -44 0 -7 -5 -18 -12 -25 -23 -23
-2 -20 27 5 17 14 24 22 18 19 -19 -10 -16 5 3 18 9 7 14 22 12 35 -3 22 -4
22 -25 -8z"/>
<path d="M9976 7441 c-23 -26 -34 -101 -15 -101 26 0 37 15 52 68 15 49 15 52
-2 52 -10 0 -26 -9 -35 -19z"/>
<path d="M10030 7335 c-7 -9 -11 -18 -8 -20 3 -3 11 1 18 10 7 9 11 18 8 20
-3 3 -11 -1 -18 -10z"/>
<path d="M9652 7311 c-12 -13 -22 -33 -22 -43 0 -10 -5 -27 -12 -37 -16 -26
14 -107 42 -114 16 -4 20 -14 20 -49 0 -24 -5 -49 -12 -56 -13 -13 -12 -82 1
-95 10 -10 38 32 43 64 2 18 -1 24 -14 23 -10 -1 -18 2 -18 7 0 5 5 9 11 9 6
0 8 10 5 23 -3 12 -3 16 0 9 7 -16 24 -6 24 15 0 9 8 35 19 57 38 84 83 207
78 213 -4 3 -10 -2 -13 -11 -5 -14 -9 -15 -16 -4 -8 10 -11 10 -15 0 -2 -6
-10 -9 -15 -6 -6 4 -17 -2 -25 -12 -14 -18 -15 -18 -36 6 l-22 26 -23 -25z"/>
<path d="M8830 7224 c0 -21 8 -47 20 -61 22 -29 27 -57 8 -51 -7 3 -14 17 -16
32 -3 26 -6 28 -39 23 -57 -10 -59 -19 -21 -84 20 -32 38 -75 41 -97 3 -21 9
-41 12 -44 13 -13 38 16 56 63 23 60 23 66 4 59 -9 -4 -15 0 -15 9 0 8 -6 18
-12 20 -7 3 -1 6 13 6 17 1 29 -6 33 -16 13 -34 26 10 19 66 -7 59 -32 94 -75
105 -27 6 -28 5 -28 -30z"/>
<path d="M9100 7179 c0 -18 13 -39 25 -39 16 0 47 -82 39 -103 -3 -9 -10 -14
-15 -11 -10 6 -12 -30 -3 -75 6 -26 9 -29 21 -19 22 18 40 -12 49 -81 6 -55
30 -115 56 -142 27 -28 48 -69 48 -92 0 -12 4 -27 9 -33 5 -5 23 -37 40 -70
36 -71 69 -88 97 -50 11 14 18 17 21 9 3 -7 11 -13 19 -13 17 0 17 1 3 37 -6
15 -11 56 -10 91 0 34 -4 62 -10 62 -5 0 -14 11 -19 25 -5 14 -14 25 -20 25
-6 0 -9 -4 -6 -9 8 -12 -21 -34 -34 -26 -5 3 -10 17 -10 30 0 13 -7 28 -15 32
-17 10 -75 208 -75 258 0 18 5 37 10 40 20 12 9 36 -20 46 -27 10 -35 20 -31
42 0 4 -13 7 -30 7 -20 0 -40 10 -59 29 -28 27 -80 47 -80 30z m164 -151 c6
-18 6 -35 -1 -50 l-11 -23 -11 28 c-6 15 -14 39 -17 53 -6 22 -4 25 12 22 10
-2 23 -15 28 -30z"/>
<path d="M9870 7138 c0 -7 -7 -26 -15 -42 -16 -31 -15 -45 2 -24 12 15 27 78
19 78 -3 0 -6 -6 -6 -12z"/>
<path d="M9852 7006 c-13 -6 -26 -23 -29 -38 -3 -15 -10 -25 -17 -22 -7 3 -13
-1 -13 -8 0 -7 -9 -33 -20 -58 -14 -31 -23 -78 -28 -152 -5 -78 -11 -108 -20
-108 -15 0 -28 27 -19 41 3 5 -2 9 -10 9 -24 0 -27 -14 -29 -113 l-2 -92 61
-3 61 -2 16 60 c9 33 17 92 17 132 0 40 7 98 15 128 8 30 15 71 15 91 0 19 7
59 16 88 8 29 14 54 12 55 -2 1 -13 -3 -26 -8z m-16 -108 c-3 -13 -6 -31 -6
-41 0 -13 -6 -17 -22 -15 -17 2 -22 9 -21 26 3 27 23 51 42 52 9 0 11 -7 7
-22z m-119 -395 c-3 -10 -5 -4 -5 12 0 17 2 24 5 18 2 -7 2 -21 0 -30z"/>
<path d="M9070 6985 c0 -14 32 -66 37 -61 8 7 -17 66 -28 66 -5 0 -9 -2 -9 -5z"/>
<path d="M9591 6958 c0 -13 4 -32 8 -42 11 -29 24 -2 16 34 -8 35 -25 40 -24
8z"/>
<path d="M9010 6950 c0 -24 -13 -26 -33 -5 -13 13 -16 13 -21 -1 -14 -37 -6
-64 21 -75 22 -8 30 -7 40 7 7 10 13 21 13 26 0 4 7 8 15 8 18 0 19 14 5 41
-14 25 -40 25 -40 -1z"/>
<path d="M9747 6943 c-10 -10 -8 -73 2 -73 13 0 25 60 14 71 -5 5 -12 6 -16 2z"/>
<path d="M8770 6930 c0 -5 5 -10 10 -10 6 0 10 5 10 10 0 6 -4 10 -10 10 -5 0
-10 -4 -10 -10z"/>
<path d="M8911 6791 c-13 -9 -12 -27 5 -88 5 -17 2 -23 -9 -23 -26 0 -26 -12
4 -85 l28 -70 0 115 c-1 131 -7 164 -28 151z"/>
<path d="M9052 6758 c6 -18 14 -37 18 -43 9 -13 -3 -58 -17 -62 -8 -3 -37 29
-57 63 -1 1 -11 5 -24 9 l-23 7 3 -127 3 -127 40 -29 c22 -16 72 -40 110 -55
59 -21 90 -26 200 -29 71 -2 124 -1 117 4 -7 4 22 13 69 20 101 17 92 35 -18
33 -43 0 -93 1 -110 4 -29 4 -31 7 -21 23 8 14 7 25 -6 51 -9 18 -16 39 -16
45 0 7 -9 33 -20 57 -24 54 -75 84 -92 55 -18 -32 -44 -19 -69 35 -31 68 -56
98 -79 98 -17 0 -18 -4 -8 -32z m1 -213 c1 -15 -3 -30 -10 -32 -13 -5 -28 51
-18 68 11 16 25 -3 28 -36z m227 -105 c0 -5 -6 -10 -14 -10 -8 0 -18 5 -21 10
-3 6 3 10 14 10 12 0 21 -4 21 -10z"/>
<path d="M9531 6696 c5 -6 9 -20 9 -33 0 -30 16 -30 24 0 10 36 7 42 -18 42
-16 0 -21 -3 -15 -9z"/>
<path d="M9620 6580 c0 -28 -6 -45 -20 -57 -11 -10 -20 -28 -20 -40 0 -20 5
-23 36 -23 33 0 36 2 30 23 -3 12 -6 48 -6 80 0 31 -4 57 -10 57 -5 0 -10 -18
-10 -40z"/>
<path d="M8329 6486 c-9 -20 -22 -28 -51 -32 -66 -11 -42 -23 40 -19 96 4 101
9 50 54 l-27 24 -12 -27z"/>
<path d="M8532 6470 c-30 -25 -28 -40 7 -40 36 0 46 14 29 39 -13 18 -14 18
-36 1z"/>
<path d="M8262 6379 c-2 -32 3 -45 28 -71 24 -25 30 -38 25 -58 -21 -84 -39
-134 -56 -151 -19 -19 -19 -19 5 -30 17 -8 29 -8 44 0 11 6 32 11 46 11 21 0
34 13 66 64 42 66 59 80 85 70 21 -8 20 -16 -21 -95 -19 -39 -33 -77 -30 -84
2 -7 20 -15 39 -19 20 -4 37 -12 39 -18 2 -6 17 -13 34 -14 16 -1 51 -5 78 -9
l49 -8 -5 51 -5 51 30 -17 c37 -22 44 -38 23 -60 -14 -16 -14 -20 0 -40 21
-31 41 -27 60 9 l16 32 64 -7 64 -7 0 106 c0 76 -4 107 -12 110 -7 2 -39 9
-70 15 -32 6 -57 16 -55 22 1 6 -9 17 -23 24 -72 35 -105 44 -171 44 -47 0
-78 5 -94 16 -13 9 -33 13 -44 9 -10 -3 -22 -2 -25 4 -7 10 -66 8 -83 -2 -6
-4 -25 -2 -41 4 -29 10 -49 39 -44 66 2 6 -1 14 -5 16 -5 3 -9 -12 -11 -34z
m142 -214 c-4 -8 -15 -15 -25 -15 -10 0 -19 -6 -19 -14 0 -18 -26 -39 -39 -32
-5 3 -6 18 -2 34 5 18 14 27 30 28 12 1 24 4 28 8 13 12 32 6 27 -9z m166 -96
c7 -11 9 -27 6 -36 -9 -22 -36 3 -36 33 0 30 16 31 30 3z"/>
<path d="M9075 6214 c-27 -9 -67 -16 -87 -15 l-38 1 0 -110 c0 -101 2 -110 19
-110 27 0 30 -15 32 -147 1 -128 -5 -161 -27 -143 -17 15 -26 -33 -22 -115 2
-45 7 -60 18 -60 8 0 17 -3 20 -7 3 -3 17 -9 32 -13 23 -6 36 2 92 54 74 69
111 84 133 55 8 -10 19 -18 24 -16 5 1 9 -8 9 -20 0 -13 -4 -18 -8 -13 -4 6
-16 17 -26 25 -19 15 -19 14 -2 -12 21 -33 9 -36 -27 -8 -30 24 -56 28 -38 6
9 -11 9 -16 -1 -22 -7 -5 -15 -9 -18 -9 -12 -2 -64 -34 -55 -35 6 0 -9 -9 -33
-20 -24 -11 -41 -24 -37 -30 3 -6 -3 -10 -15 -10 -16 0 -20 -4 -16 -16 3 -8 2
-12 -4 -9 -6 3 -10 -1 -10 -9 0 -19 24 -15 130 25 47 18 123 42 170 54 72 19
86 26 88 44 3 21 5 22 22 6 10 -9 23 -14 28 -11 15 9 24 114 11 137 -7 15 -7
24 1 34 10 12 15 11 29 -6 l16 -20 24 25 c14 14 21 29 17 33 -4 5 -39 8 -77 8
-41 0 -68 4 -66 10 2 6 31 9 65 8 35 -1 62 2 62 8 0 5 11 6 26 3 20 -5 25 -3
22 7 -3 8 -13 14 -24 14 -10 0 -27 8 -37 18 -17 17 -20 17 -35 4 -11 -10 -28
-13 -45 -10 -15 3 -33 1 -40 -5 -10 -9 -13 0 -13 46 1 58 9 74 32 65 10 -4 11
-10 4 -23 -13 -25 -13 -25 15 -56 l25 -27 0 29 c0 22 3 25 12 16 7 -7 22 -12
35 -12 18 0 23 6 23 25 0 22 -4 25 -38 25 -29 0 -39 4 -39 16 0 12 7 14 30 10
16 -3 43 -6 58 -6 27 0 29 -3 24 -27 -3 -16 -2 -21 1 -13 4 8 21 29 39 45 27
26 33 39 39 95 7 65 34 150 49 150 4 0 7 8 7 19 0 16 -12 19 -117 25 -65 4
-136 11 -158 16 -22 5 -94 11 -160 14 -95 5 -131 3 -170 -10z m292 -296 c-3
-8 -6 -5 -6 6 -1 11 2 17 5 13 3 -3 4 -12 1 -19z m31 -246 c2 -7 -2 -10 -12
-6 -9 3 -16 11 -16 16 0 13 23 5 28 -10z"/>
<path d="M8340 5833 c0 -10 -6 -14 -20 -10 -16 4 -28 -7 -60 -62 -21 -37 -46
-73 -54 -80 -9 -8 -14 -17 -11 -21 3 -5 -5 -16 -17 -24 -25 -18 -22 -24 11
-28 18 -2 26 4 35 27 19 51 48 87 59 76 18 -18 27 -12 19 12 -10 26 -5 57 10
57 14 0 68 39 68 50 0 4 -9 10 -20 13 -14 3 -20 0 -20 -10z"/>
<path d="M8775 5715 c-11 -35 -22 -55 -31 -55 -36 0 -47 -29 -45 -117 1 -47 4
-90 7 -94 3 -5 17 -9 32 -9 22 0 28 5 30 26 5 58 17 66 95 62 l72 -3 3 35 c5
52 -8 161 -19 155 -5 -4 -9 0 -9 8 0 23 -23 36 -73 42 l-46 6 -16 -56z"/>
<path d="M10630 5595 c-11 -13 -10 -14 4 -9 9 3 16 10 16 15 0 13 -6 11 -20
-6z"/>
<path d="M8265 5590 c-9 -14 52 -59 114 -84 36 -14 65 -26 65 -26 1 0 2 23 4
50 3 51 -6 61 -38 40 -9 -6 -19 -5 -28 2 -16 14 -111 28 -117 18z"/>
<path d="M8140 5575 c-11 -14 36 -52 134 -109 l49 -28 -7 38 c-7 38 -35 79
-66 99 -23 14 -98 15 -110 0z"/>
<path d="M8624 5534 c-4 -14 -2 -35 3 -47 8 -18 10 -13 9 25 -1 27 -2 48 -3
48 -2 0 -6 -12 -9 -26z"/>
<path d="M8498 5543 c7 -3 16 -2 19 1 4 3 -2 6 -13 5 -11 0 -14 -3 -6 -6z"/>
<path d="M9445 5530 c-3 -5 1 -23 10 -39 8 -17 15 -39 15 -51 0 -14 6 -20 24
-20 13 0 35 -9 49 -20 14 -11 34 -19 44 -18 45 4 61 -3 71 -29 5 -16 20 -39
33 -52 20 -21 23 -22 34 -7 7 9 18 16 26 16 29 0 120 -50 162 -89 24 -23 49
-41 55 -41 6 0 17 -9 25 -21 9 -13 17 -16 22 -10 12 21 25 11 20 -16 l-5 -28
11 29 c12 29 12 28 30 -40 10 -38 19 -73 19 -79 0 -6 -21 -9 -50 -7 -46 4 -55
0 -95 -32 -47 -39 -115 -72 -115 -57 0 5 6 11 13 14 6 2 -9 7 -35 11 -25 4
-51 13 -57 20 -6 7 -29 19 -51 26 -30 10 -40 19 -40 34 0 27 -19 59 -21 36 0
-8 -6 -2 -13 13 -7 16 -17 32 -22 35 -5 4 -14 16 -20 27 -12 24 -101 71 -161
85 -35 9 -45 17 -59 50 -15 33 -21 38 -43 35 -14 -2 -71 -7 -126 -10 -68 -4
-104 -10 -116 -21 -9 -8 -42 -18 -73 -21 l-56 -6 2 -466 3 -466 80 -8 c44 -4
100 -12 125 -18 25 -6 133 -17 240 -24 197 -14 283 -31 294 -61 3 -8 1 -74 -4
-147 -5 -72 -12 -240 -15 -372 -5 -182 -11 -259 -25 -320 -10 -44 -20 -91 -22
-105 -2 -14 -7 -28 -13 -32 -5 -4 -157 -8 -337 -8 l-328 0 0 -305 0 -305 925
0 925 0 0 878 c-1 785 -2 879 -16 897 -16 19 -16 19 -12 -7 4 -19 1 -28 -8
-28 -7 0 -14 4 -16 9 -1 4 -13 12 -25 15 -18 6 -23 3 -23 -10 0 -24 -23 -2
-27 26 -4 25 -51 69 -75 70 -9 0 -20 4 -23 10 -4 6 1 7 11 3 11 -4 15 -3 10 5
-3 6 -2 13 3 16 5 4 12 -2 14 -11 4 -16 5 -16 6 1 1 13 6 17 22 13 11 -3 39 1
62 9 23 8 47 12 54 10 21 -8 43 5 43 25 0 17 -9 18 -150 14 -131 -3 -152 -2
-171 14 -30 24 -18 73 27 109 46 37 53 73 20 122 -15 24 -36 41 -53 44 -48 11
-101 70 -118 134 -9 31 -20 66 -25 77 -4 11 -16 43 -25 70 -10 28 -19 52 -21
54 -2 2 -14 -10 -28 -25 -21 -25 -28 -27 -43 -17 -22 15 -112 70 -167 102 -42
24 -585 301 -591 301 -2 0 -7 -4 -10 -10z m649 -625 c30 -23 18 -193 -24 -327
-18 -57 -41 -132 -52 -168 -11 -36 -36 -89 -55 -117 -35 -53 -46 -64 -38 -40
5 17 13 184 21 432 3 116 7 216 10 223 5 17 114 15 138 -3z m-268 -57 c-3 -24
-7 -50 -8 -58 -2 -19 -38 -49 -60 -50 -14 0 -15 5 -8 29 4 15 6 40 3 55 -6 29
27 65 61 66 16 0 17 -6 12 -42z m-743 -55 c-13 -2 -35 -2 -50 0 -16 2 -5 4 22
4 28 0 40 -2 28 -4z m640 -122 c-2 -89 -17 -93 -238 -57 -199 32 -251 39 -287
38 -21 -1 -38 3 -38 7 0 11 45 18 205 31 72 6 171 17 220 25 50 7 101 12 115
11 24 -1 25 -4 23 -55z m654 -743 c-3 -8 -6 -5 -6 6 -1 11 2 17 5 13 3 -3 4
-12 1 -19z"/>
<path d="M8352 5471 c1 -16 5 -28 9 -25 4 2 9 -5 12 -15 3 -13 18 -21 47 -26
57 -10 110 -32 117 -50 6 -17 103 -22 103 -6 0 18 107 24 175 10 l65 -13 30
29 c16 15 27 32 24 37 -4 5 -16 0 -28 -11 -19 -18 -31 -19 -136 -16 -63 3
-129 5 -146 5 -17 0 -47 11 -66 23 -37 26 -98 42 -98 27 0 -5 12 -13 28 -16
15 -4 34 -12 42 -19 8 -7 33 -22 55 -33 22 -12 35 -21 29 -22 -6 0 -32 11 -58
25 -26 14 -55 25 -64 25 -22 1 -56 28 -72 58 -6 13 -14 21 -18 18 -3 -3 -16 1
-29 9 -23 15 -23 15 -21 -14z"/>
<path d="M8557 5443 c-13 -12 -7 -21 17 -27 13 -3 32 -9 41 -13 14 -5 12 0 -6
20 -22 27 -39 33 -52 20z"/>
<path d="M9984 5358 c-5 -17 0 -27 22 -45 27 -21 29 -22 32 -5 4 27 -16 72
-32 72 -8 0 -18 -10 -22 -22z"/>
<path d="M9017 3543 c-4 -6 -5 -17 -3 -25 3 -7 12 -39 21 -70 8 -32 19 -58 23
-58 4 0 13 9 20 21 12 19 10 24 -18 49 -18 16 -29 33 -26 38 3 6 2 20 -2 33
-5 13 -11 18 -15 12z"/>
<path d="M9127 3473 c-26 -7 -18 -47 11 -51 19 -3 22 1 22 27 0 17 -3 30 -7
30 -5 -1 -16 -3 -26 -6z"/>
<path d="M9070 3324 c1 -10 7 -30 15 -44 l14 -25 0 25 c0 14 -6 34 -14 44 -15
20 -15 20 -15 0z"/>
<path d="M0 2915 l0 -305 930 0 930 0 0 305 0 305 -930 0 -930 0 0 -305z"/>
<path d="M0 1300 l0 -1300 930 0 930 0 0 1300 0 1300 -930 0 -930 0 0 -1300z"/>
<path d="M1870 1300 l0 -1300 3535 0 3535 0 0 1300 0 1300 -3535 0 -3535 0 0
-1300z m2535 1019 c0 -7 -8 -15 -17 -17 -18 -3 -25 18 -11 32 10 10 28 1 28
-15z m383 -97 c3 -98 2 -102 -18 -102 -12 0 -18 5 -15 10 3 6 2 10 -4 10 -5 0
-13 -4 -16 -10 -12 -20 -73 -11 -89 12 -38 53 -9 128 49 128 19 0 37 -4 40
-10 12 -19 22 -10 17 15 -6 32 4 58 21 53 8 -3 13 -36 15 -106z m388 0 c0 -93
-1 -102 -18 -102 -11 0 -16 5 -13 10 3 6 2 10 -4 10 -5 0 -13 -4 -16 -10 -12
-20 -73 -11 -89 12 -38 53 -9 128 49 128 19 0 37 -4 40 -10 12 -19 22 -10 17
15 -6 32 4 58 21 52 8 -2 12 -33 13 -105z m254 3 c0 -87 -3 -105 -15 -105 -12
0 -15 18 -15 105 0 87 3 105 15 105 12 0 15 -18 15 -105z m1238 -3 c3 -97 2
-102 -18 -102 -19 0 -20 6 -20 98 0 54 3 102 7 106 20 19 28 -8 31 -102z
m1224 3 c3 -95 1 -105 -14 -105 -16 0 -18 12 -18 105 0 85 3 105 14 105 12 0
15 -22 18 -105z m-5437 86 c3 -6 -15 -42 -40 -81 -25 -38 -45 -75 -45 -80 0
-6 20 -10 45 -10 25 0 45 -4 45 -10 0 -6 -30 -10 -70 -10 -68 0 -69 0 -61 23
5 12 27 49 49 82 l40 60 -44 3 c-30 2 -44 8 -44 18 0 11 14 14 59 14 33 0 62
-4 66 -9z m153 -8 c2 -9 -9 -13 -37 -13 -39 0 -41 -2 -41 -30 0 -28 3 -30 35
-30 19 0 35 -4 35 -10 0 -5 -16 -10 -35 -10 -33 0 -35 -2 -35 -35 0 -34 1 -35
40 -35 22 0 40 -4 40 -10 0 -6 -27 -10 -60 -10 l-60 0 0 100 0 101 57 -3 c34
-2 58 -8 61 -15z m70 -31 l3 -42 45 0 44 0 0 45 c0 33 4 45 15 45 12 0 15 -18
15 -100 0 -82 -3 -100 -15 -100 -11 0 -15 12 -15 45 l0 45 -45 0 -45 0 0 -45
c0 -38 -3 -45 -20 -45 -19 0 -20 7 -20 101 0 90 2 100 18 97 12 -2 18 -15 20
-46z m242 -27 l45 -69 3 72 c2 55 6 72 17 72 12 0 15 -19 15 -100 0 -124 -11
-128 -75 -33 l-45 68 0 -68 c0 -60 -2 -67 -20 -67 -19 0 -20 7 -20 101 0 90 2
100 18 97 9 -2 37 -34 62 -73z m230 -15 l0 -90 35 0 c19 0 35 -4 35 -10 0 -5
-22 -10 -50 -10 l-50 0 0 100 c0 82 3 100 15 100 12 0 15 -17 15 -90z m130
-10 c0 -82 -3 -100 -15 -100 -12 0 -15 18 -15 100 0 82 3 100 15 100 12 0 15
-18 15 -100z m90 15 c31 -89 25 -91 66 24 17 48 37 72 49 59 3 -2 -11 -47 -29
-99 -29 -82 -37 -94 -57 -94 -20 0 -27 12 -55 90 -39 106 -39 107 -17 103 11
-2 26 -31 43 -83z m188 -18 c3 -92 2 -97 -18 -97 -19 0 -20 6 -20 101 0 90 2
100 18 97 14 -3 17 -17 20 -101z m76 88 c8 -9 30 -40 48 -70 18 -30 36 -55 40
-55 4 0 6 24 3 53 -5 61 1 87 21 87 11 0 14 -20 14 -100 0 -91 -2 -100 -19
-100 -12 0 -34 24 -62 67 l-44 67 -3 -67 c-2 -51 -6 -67 -17 -67 -12 0 -15 19
-15 100 0 55 4 100 9 100 5 0 16 -7 25 -15z m305 0 c31 -15 46 -41 30 -50 -5
-4 -21 3 -35 14 -33 26 -58 27 -84 1 -24 -24 -27 -82 -4 -104 20 -21 73 -20
96 1 27 24 22 33 -17 33 -25 0 -35 4 -35 16 0 12 10 14 48 12 45 -3 47 -4 45
-33 -4 -59 -86 -95 -145 -64 -31 17 -49 70 -37 112 18 66 78 93 138 62z m380
-22 c22 -25 22 -28 7 -31 -10 -2 -28 6 -40 17 -38 36 -80 26 -96 -25 -25 -74
39 -121 102 -74 43 32 59 19 21 -18 -82 -83 -204 12 -150 118 28 56 112 63
156 13z m1574 5 c26 -26 29 -33 15 -36 -9 -2 -26 6 -37 17 -25 25 -49 27 -78
6 -38 -26 -37 -92 1 -117 21 -14 63 -8 81 12 19 21 45 27 45 10 0 -6 -11 -22
-25 -35 -17 -18 -35 -25 -63 -25 -78 0 -122 71 -87 143 30 64 98 76 148 25z
m1309 -55 l3 -88 33 -3 c51 -5 37 -22 -18 -22 l-50 0 0 100 c0 81 3 100 15
100 11 0 15 -19 17 -87z m927 61 c33 -42 26 -141 -13 -166 -21 -14 -66 -8 -86
12 -16 16 -20 33 -20 80 0 47 4 64 20 80 29 29 74 26 99 -6z m183 1 c15 -34 2
-44 -22 -17 -32 34 -55 25 -70 -26 -8 -32 -8 -32 13 -17 45 32 97 6 97 -48 0
-40 -26 -67 -65 -67 -47 0 -66 20 -72 73 -10 85 14 127 73 127 27 0 37 -5 46
-25z m108 -75 c0 -93 -1 -100 -20 -100 -18 0 -20 7 -20 85 0 69 -3 85 -15 85
-16 0 -20 12 -8 23 3 4 19 7 35 7 l28 0 0 -100z m-2162 45 c19 -14 24 -14 47
1 52 34 95 -12 95 -102 0 -37 -3 -44 -20 -44 -18 0 -20 7 -20 54 0 60 -19 88
-48 69 -12 -7 -18 -27 -20 -67 -3 -48 -6 -56 -22 -56 -17 0 -20 7 -20 54 0 60
-19 88 -48 69 -12 -7 -18 -27 -20 -67 -3 -48 -6 -56 -22 -56 -18 0 -20 7 -20
75 0 60 3 75 15 75 8 0 15 -4 15 -9 0 -6 12 -3 28 5 34 17 33 17 60 -1z m728
-31 c-26 -39 -26 -41 10 -91 15 -22 15 -23 -3 -23 -11 0 -26 11 -33 25 -7 14
-16 25 -20 25 -4 0 -12 -11 -18 -25 -7 -16 -20 -25 -33 -25 -20 0 -21 2 -7 18
36 41 40 61 18 91 -24 34 -25 41 -6 41 8 0 23 -12 33 -26 l19 -25 13 25 c12
21 38 38 49 30 2 -1 -8 -19 -22 -40z m-2584 -39 c3 -66 1 -75 -14 -75 -16 0
-18 10 -18 75 0 58 3 75 14 75 11 0 15 -18 18 -75z m78 20 c0 -44 4 -56 20
-65 14 -8 26 -8 40 0 16 9 20 21 20 65 0 42 3 55 15 55 12 0 15 -15 15 -75 0
-60 -3 -75 -15 -75 -8 0 -15 5 -15 12 0 9 -3 9 -12 0 -15 -15 -53 -16 -79 -2
-16 9 -19 22 -19 75 0 51 3 65 15 65 12 0 15 -13 15 -55z m458 43 c9 -9 12 -9
12 0 0 7 7 12 15 12 12 0 15 -15 15 -75 0 -58 -3 -75 -14 -75 -8 0 -16 6 -19
13 -4 10 -7 10 -18 0 -18 -18 -64 -16 -83 2 -32 32 -32 87 0 119 18 19 75 21
92 4z m404 -5 c10 -9 18 -27 18 -40 0 -22 -4 -23 -60 -23 -64 0 -72 -6 -41
-34 20 -18 61 -15 61 5 0 5 9 9 20 9 26 0 25 -15 -2 -34 -35 -25 -83 -20 -107
10 -12 15 -21 37 -21 49 0 12 9 34 21 49 24 31 81 36 111 9z m236 5 c9 -9 12
-9 12 0 0 7 6 12 14 12 11 0 15 -18 18 -75 3 -66 1 -75 -14 -75 -10 0 -18 5
-18 12 0 9 -3 9 -12 0 -21 -21 -75 -15 -92 10 -37 52 -9 128 48 128 17 0 37
-5 44 -12z m511 -14 c12 -15 21 -37 21 -49 0 -12 -9 -34 -21 -49 -44 -56 -139
-20 -139 53 0 68 97 99 139 45z m381 14 c0 -9 3 -9 12 0 13 13 66 16 85 4 6
-4 17 -20 23 -36 20 -53 -13 -106 -65 -106 -17 0 -36 5 -43 12 -9 9 -12 2 -12
-35 0 -35 -4 -47 -15 -47 -12 0 -15 19 -15 110 0 91 3 110 15 110 8 0 15 -5
15 -12z m364 -10 c32 -45 22 -58 -44 -58 -62 0 -71 -7 -44 -34 20 -20 38 -20
58 0 9 8 24 14 33 12 16 -3 15 -6 -5 -26 -29 -29 -84 -30 -112 -2 -12 12 -20
33 -20 55 0 48 29 75 79 75 30 0 44 -6 55 -22z m596 2 c26 -26 26 -80 0 -108
-26 -28 -79 -29 -111 -3 -29 23 -31 81 -4 111 25 27 88 27 115 0z m185 -2 c14
-20 14 -23 0 -26 -8 -2 -22 4 -31 12 -8 9 -22 16 -29 16 -21 0 -45 -29 -45
-55 0 -44 69 -68 84 -29 6 16 36 19 36 4 0 -23 -41 -50 -75 -50 -65 0 -99 72
-59 128 22 32 96 31 119 0z m150 12 c3 -5 11 -10 16 -10 6 0 7 5 4 10 -3 6 3
10 14 10 19 0 21 -6 21 -75 0 -69 -2 -75 -21 -75 -11 0 -17 5 -14 10 3 6 2 10
-4 10 -5 0 -13 -4 -16 -10 -11 -17 -64 -11 -85 10 -24 24 -26 77 -4 108 16 23
77 32 89 12z m-3717 -147 c-2 -14 -9 -29 -17 -31 -9 -3 -11 0 -6 8 4 7 2 16
-5 20 -15 10 -4 30 16 30 11 0 14 -8 12 -27z m3016 12 c8 -21 -3 -45 -21 -45
-13 0 -13 3 -3 15 9 10 9 15 1 15 -6 0 -11 7 -11 15 0 8 6 15 14 15 8 0 16 -7
20 -15z m1420 -1 c7 -17 -9 -44 -26 -44 -6 0 -5 7 2 15 9 10 9 15 1 15 -6 0
-11 7 -11 15 0 20 26 19 34 -1z m-2938 -145 c10 -17 -13 -36 -27 -22 -12 12
-4 33 11 33 5 0 12 -5 16 -11z m-2016 -104 c0 -87 -3 -105 -15 -105 -12 0 -15
18 -15 105 0 87 3 105 15 105 12 0 15 -18 15 -105z m1458 -3 c3 -98 2 -102
-18 -102 -12 0 -18 5 -15 10 3 6 2 10 -4 10 -5 0 -13 -4 -16 -10 -11 -17 -64
-11 -85 10 -24 24 -26 77 -4 108 16 23 77 32 89 12 13 -21 20 -8 17 31 -4 36
-2 40 14 37 17 -3 19 -15 22 -106z m-1588 8 l0 -90 35 0 c19 0 35 -4 35 -10 0
-5 -22 -10 -50 -10 l-50 0 0 100 c0 82 3 100 15 100 12 0 15 -17 15 -90z
m2055 65 c32 -31 32 -59 -2 -83 l-26 -19 28 -37 c25 -33 26 -36 8 -36 -13 0
-31 16 -47 40 -14 22 -31 40 -36 40 -6 0 -10 -18 -10 -40 0 -29 -4 -40 -15
-40 -12 0 -15 18 -15 100 l0 100 45 0 c35 0 52 -6 70 -25z m1599 -68 c16 -45
31 -88 34 -94 2 -7 -3 -13 -13 -13 -9 0 -19 9 -22 20 -4 16 -14 20 -48 20 -35
0 -45 -4 -50 -20 -3 -11 -14 -20 -24 -20 -17 0 -15 10 17 95 29 78 39 95 56
95 17 0 26 -15 50 -83z m296 63 c0 -13 7 -20 20 -20 11 0 20 -4 20 -10 0 -5
-9 -10 -20 -10 -17 0 -20 -7 -20 -50 0 -43 3 -50 20 -50 11 0 20 -7 20 -15 0
-18 -41 -20 -58 -3 -7 7 -12 35 -12 64 0 32 -5 55 -12 58 -10 5 -10 7 0 12 6
3 12 14 12 25 0 10 7 19 15 19 8 0 15 -9 15 -20z m-3452 -32 c18 -15 17 -138
-3 -138 -10 0 -15 15 -17 56 -3 64 -23 88 -55 68 -13 -8 -19 -27 -21 -68 -2
-41 -7 -56 -17 -56 -12 0 -15 16 -15 75 0 60 3 75 15 75 8 0 15 -5 15 -11 0
-5 10 -3 22 5 22 16 51 13 76 -6z m522 3 c0 -12 -9 -21 -25 -25 -23 -6 -25
-11 -25 -61 0 -42 -3 -55 -15 -55 -12 0 -15 15 -15 75 0 60 3 75 15 75 8 0 15
-5 15 -11 0 -5 10 -3 22 5 28 20 28 20 28 -3z m358 -9 c18 -23 16 -132 -3
-132 -10 0 -15 15 -17 56 -3 64 -23 88 -55 68 -13 -8 -19 -27 -21 -68 -2 -41
-7 -56 -17 -56 -12 0 -15 16 -15 75 0 60 3 75 15 75 8 0 15 -5 15 -11 0 -5 10
-3 22 5 25 18 56 13 76 -12z m1130 0 c18 -24 16 -132 -3 -132 -11 0 -15 12
-15 46 0 54 -14 84 -38 84 -30 0 -42 -22 -42 -77 0 -46 -3 -53 -20 -53 -18 0
-20 7 -20 75 0 69 2 75 21 75 11 0 17 -4 14 -10 -9 -15 7 -12 29 5 22 17 55
11 74 -13z m522 2 c0 -8 -8 -14 -18 -14 -30 0 -42 -21 -42 -72 0 -36 -4 -48
-15 -48 -12 0 -15 15 -15 75 0 60 3 75 15 75 8 0 15 -5 15 -11 0 -6 9 -4 22 5
23 17 38 13 38 -10z m815 1 c21 -20 25 -34 25 -80 0 -47 -3 -55 -19 -55 -16 0
-19 8 -20 56 -1 64 -5 74 -31 74 -35 0 -52 -29 -48 -82 4 -41 2 -48 -14 -48
-16 0 -18 9 -18 75 0 60 3 75 15 75 8 0 15 -4 15 -9 0 -6 12 -3 28 5 36 19 39
18 67 -11z m-3567 3 c9 -9 12 -9 12 0 0 7 7 12 15 12 12 0 15 -15 15 -75 0
-60 -3 -75 -15 -75 -8 0 -15 5 -15 10 0 7 -6 7 -19 0 -30 -16 -66 -12 -85 9
-24 27 -25 85 -1 111 20 22 74 27 93 8z m404 -5 c27 -24 25 -97 -4 -117 -56
-40 -128 -6 -128 59 0 47 29 75 77 75 20 0 45 -7 55 -17z m166 5 c9 -9 12 -9
12 0 0 7 7 12 15 12 12 0 15 -17 15 -94 0 -91 -1 -95 -27 -116 -34 -26 -79
-21 -106 12 -23 28 -7 35 28 12 35 -23 75 -6 75 31 0 25 -14 33 -25 15 -10
-16 -61 -11 -77 8 -26 29 -30 59 -12 97 14 31 21 35 53 35 20 0 42 -5 49 -12z
m308 1 c4 -8 9 -8 17 0 28 28 37 11 37 -64 0 -69 -2 -75 -21 -75 -11 0 -17 5
-14 10 3 6 2 10 -4 10 -5 0 -13 -4 -16 -10 -11 -17 -64 -11 -85 10 -24 24 -26
77 -4 108 16 24 77 31 90 11z m596 -6 c10 -9 18 -27 18 -40 0 -22 -4 -23 -60
-23 -56 0 -60 -1 -51 -19 16 -28 40 -33 72 -14 36 21 52 8 20 -18 -68 -55
-160 17 -120 94 7 12 17 25 23 29 20 14 79 8 98 -9z m398 -58 c0 -66 -2 -75
-18 -75 -15 0 -18 10 -19 67 -1 74 1 83 23 83 11 0 14 -16 14 -75z m170 48
c41 -52 3 -123 -65 -123 -47 0 -79 41 -71 90 7 43 29 60 77 60 29 0 42 -6 59
-27z m356 19 c13 -8 34 -46 34 -61 0 -7 -24 -11 -60 -11 -47 0 -60 -3 -60 -15
0 -9 11 -21 25 -27 20 -9 28 -8 43 5 19 17 42 23 42 10 0 -18 -37 -43 -64 -43
-51 0 -76 24 -76 72 0 53 22 78 69 78 20 0 41 -4 47 -8z m172 -4 c9 -9 12 -9
12 0 0 7 7 12 15 12 12 0 15 -17 15 -94 0 -91 -1 -95 -27 -116 -34 -26 -79
-21 -107 13 -17 20 -17 22 -1 25 9 2 24 -3 34 -12 33 -30 71 -13 71 33 0 19
-3 22 -12 13 -17 -17 -68 -15 -90 5 -23 21 -24 89 -1 115 18 20 73 24 91 6z
m336 -10 c39 -55 6 -128 -57 -128 -52 0 -77 24 -77 72 0 56 22 78 76 78 33 0
46 -5 58 -22z m216 -28 c0 -6 -27 -10 -60 -10 -33 0 -60 4 -60 10 0 6 27 10
60 10 33 0 60 -4 60 -10z m650 -85 c0 -8 -9 -15 -20 -15 -11 0 -20 7 -20 15 0
8 9 15 20 15 11 0 20 -7 20 -15z m-2217 -7 c5 -14 -10 -48 -21 -48 -4 0 -8 14
-9 30 -2 30 20 44 30 18z m955 -527 c-1 -39 -2 -71 -2 -71 1 0 18 7 38 15 44
19 80 11 106 -22 17 -22 20 -41 20 -129 l0 -104 -40 0 -40 0 0 76 c0 82 -11
114 -38 114 -34 0 -42 -22 -42 -107 l0 -83 -45 0 -45 0 0 194 0 195 38 3 c20
2 41 0 45 -3 5 -4 7 -39 5 -78z m-1730 22 c-1 -37 -1 -37 -5 -5 l-4 32 -230 0
-229 0 0 -230 0 -230 229 0 230 0 4 28 c4 25 4 25 6 -5 l1 -33 -240 0 -240 0
0 240 0 240 240 0 240 0 -2 -37z m-288 -143 c15 -77 25 -76 35 5 8 57 22 88
36 80 5 -4 9 -68 9 -146 0 -117 -2 -139 -15 -139 -11 0 -15 13 -16 58 -1 52
-2 54 -10 25 -5 -18 -16 -33 -23 -33 -7 0 -17 15 -22 33 -7 29 -8 27 -12 -25
-2 -42 -7 -58 -17 -58 -12 0 -15 24 -15 138 0 76 3 142 7 145 14 15 30 -16 43
-83z m528 -64 c2 -117 0 -136 -13 -136 -12 0 -15 13 -15 60 0 47 -3 60 -15 60
-12 0 -15 -13 -15 -60 0 -47 -3 -60 -15 -60 -13 0 -15 22 -15 139 0 137 0 140
23 143 12 2 31 1 42 -3 19 -6 20 -16 23 -143z m-254 117 c10 -50 36 -218 36
-235 0 -10 -7 -18 -15 -18 -14 0 -18 13 -33 120 l-8 55 -7 -60 c-12 -95 -18
-115 -33 -115 -8 0 -14 4 -14 10 0 14 30 221 35 248 7 31 32 28 39 -5z m504
15 c-3 -7 -14 -14 -26 -16 -21 -3 -22 -8 -22 -128 0 -104 -2 -124 -15 -124
-13 0 -15 21 -15 125 0 118 -1 125 -20 125 -11 0 -20 7 -20 15 0 12 13 15 61
15 44 0 60 -3 57 -12z m222 2 c0 -5 -11 -12 -25 -16 -22 -5 -25 -12 -25 -51 0
-36 3 -44 15 -40 23 10 28 -11 5 -25 -15 -10 -20 -23 -20 -60 0 -45 2 -48 26
-48 40 0 23 -25 -19 -28 l-37 -3 0 140 0 141 40 0 c22 0 40 -4 40 -10z m816
-9 c34 -21 64 -75 64 -115 l0 -26 -90 0 c-49 0 -90 -3 -90 -7 0 -13 34 -43 49
-43 9 0 26 7 37 15 17 12 27 12 53 2 17 -6 31 -14 31 -18 0 -4 -13 -18 -30
-32 -106 -89 -264 15 -221 146 11 34 53 80 81 90 32 12 86 6 116 -12z m634 4
c37 -19 46 -52 49 -167 l2 -88 -45 0 -46 0 0 76 c0 82 -11 114 -38 114 -34 0
-42 -22 -42 -107 l0 -83 -45 0 -45 0 0 130 0 130 45 0 c25 0 45 -4 45 -10 0
-5 15 -3 33 5 41 18 52 18 87 0z m-860 0 c0 -5 -63 -107 -91 -147 l-20 -28 51
0 50 0 0 -40 0 -40 -120 0 -121 0 12 23 c7 12 32 52 56 90 l43 67 -50 0 -50 0
0 40 0 40 120 0 c66 0 120 -2 120 -5z m1038 -161 c30 -21 31 -79 1 -94 -27
-15 -66 -5 -79 20 -14 27 -3 65 23 78 29 14 29 14 55 -4z m-2724 -249 c3 -9
-1 -18 -10 -22 -19 -7 -39 11 -30 26 10 16 33 13 40 -4z m103 -17 c-3 -7 -5
-2 -5 12 0 14 2 19 5 13 2 -7 2 -19 0 -25z m53 12 c0 -11 -4 -20 -10 -20 -5 0
-10 9 -10 20 0 11 5 20 10 20 6 0 10 -9 10 -20z m-90 -5 c0 -8 -6 -15 -14 -15
-17 0 -28 14 -19 24 12 12 33 6 33 -9z m150 0 c0 -8 -7 -15 -15 -15 -16 0 -20
12 -8 23 11 12 23 8 23 -8z m54 8 c-5 -5 -12 -12 -16 -18 -4 -6 -8 -2 -8 8 0
9 7 17 17 17 9 0 12 -3 7 -7z m66 1 c0 -13 -14 -34 -23 -34 -6 0 -7 3 -4 7 4
3 2 12 -4 19 -8 10 -6 13 10 11 12 -1 21 -2 21 -3z"/>
<path d="M4676 2234 c-20 -19 -21 -58 -2 -73 8 -7 27 -11 43 -9 24 3 28 8 31
38 5 51 -38 78 -72 44z"/>
<path d="M5066 2234 c-32 -31 -14 -84 29 -84 27 0 45 18 45 46 0 25 -24 54
-45 54 -7 0 -21 -7 -29 -16z"/>
<path d="M8050 2271 c-14 -27 -13 -94 2 -109 32 -32 68 -1 68 58 0 42 -16 70
-40 70 -11 0 -24 -9 -30 -19z"/>
<path d="M8225 2210 c-10 -17 3 -57 21 -64 27 -10 56 12 52 42 -2 22 -9 28
-35 30 -17 2 -34 -2 -38 -8z"/>
<path d="M4876 2237 c-12 -9 -17 -23 -14 -47 3 -30 7 -35 31 -38 53 -6 78 46
39 81 -22 20 -33 21 -56 4z"/>
<path d="M5257 2232 c-22 -24 -13 -32 35 -32 39 0 49 15 26 38 -17 17 -42 15
-61 -6z"/>
<path d="M5515 2234 c-19 -20 -16 -63 6 -77 9 -5 28 -7 42 -3 22 5 27 12 27
35 0 52 -43 77 -75 45z"/>
<path d="M5995 2230 c-35 -39 9 -104 55 -80 14 7 20 21 20 43 0 56 -40 76 -75
37z"/>
<path d="M6487 2232 c-36 -39 -12 -86 40 -80 24 3 28 8 31 38 5 53 -38 78 -71
42z"/>
<path d="M6745 2237 c-26 -20 -10 -37 36 -37 40 0 51 14 27 38 -16 16 -40 15
-63 -1z"/>
<path d="M7348 2239 c-28 -16 -24 -77 5 -88 47 -18 81 31 53 74 -18 27 -31 30
-58 14z"/>
<path d="M7707 2232 c-36 -39 -12 -86 40 -80 24 2 28 8 31 36 6 57 -37 82 -71
44z"/>
<path d="M4875 1884 c-19 -20 -16 -63 6 -77 9 -5 28 -7 42 -3 22 5 27 12 27
35 0 52 -43 77 -75 45z"/>
<path d="M5370 1905 c0 -32 2 -35 30 -35 23 0 33 6 39 23 11 29 -4 47 -40 47
-26 0 -29 -3 -29 -35z"/>
<path d="M6991 1895 c-6 -16 -14 -36 -16 -42 -3 -9 6 -13 25 -13 33 0 36 10
16 55 l-14 30 -11 -30z"/>
<path d="M3612 1888 c-29 -29 -10 -88 27 -88 33 0 51 17 51 46 0 43 -50 70
-78 42z"/>
<path d="M3996 1881 c-36 -39 3 -99 52 -80 30 11 32 73 3 89 -27 14 -35 13
-55 -9z"/>
<path d="M4181 1886 c-7 -8 -11 -30 -9 -48 3 -28 7 -34 31 -36 34 -4 57 13 57
43 0 43 -54 71 -79 41z"/>
<path d="M4496 1884 c-20 -19 -21 -58 -2 -73 8 -7 27 -11 43 -9 24 3 28 8 31
38 5 51 -38 78 -72 44z"/>
<path d="M5066 1884 c-23 -22 -11 -34 35 -34 40 0 51 14 27 38 -17 17 -44 15
-62 -4z"/>
<path d="M5624 1875 c-18 -28 -11 -60 17 -75 30 -17 59 4 59 43 0 58 -46 78
-76 32z"/>
<path d="M6002 1888 c-24 -24 -13 -38 28 -38 33 0 40 4 40 19 0 29 -45 42 -68
19z"/>
<path d="M6186 1884 c-32 -31 -14 -84 29 -84 27 0 45 18 45 46 0 25 -24 54
-45 54 -7 0 -21 -7 -29 -16z"/>
<path d="M6498 1889 c-28 -16 -24 -77 5 -88 48 -19 87 41 51 80 -19 21 -31 23
-56 8z"/>
<path d="M4640 1130 c0 -38 4 -50 15 -50 11 0 15 12 15 50 0 38 -4 50 -15 50
-11 0 -15 -12 -15 -50z"/>
<path d="M5881 1127 c-6 -8 -8 -17 -4 -20 9 -10 83 -9 83 1 0 29 -59 43 -79
19z"/>
<path d="M8950 1300 l0 -1300 925 0 925 0 0 1300 0 1300 -925 0 -925 0 0
-1300z"/>
</g>
</svg>
